<svg id="placeholder" xmlns="http://www.w3.org/2000/svg" width="24" height="24.748" viewBox="0 0 24 24.748">
  <g id="Group_223" data-name="Group 223" transform="translate(7.658 5.414)">
    <g id="Group_222" data-name="Group 222">
      <path id="Path_2230" data-name="Path 2230" d="M170.51,112c-2.719,0-4.342,1.7-4.342,4.546,0,1.62,2.152,5.362,4.341,8.35,2.176-3,4.343-6.694,4.343-8.35C174.852,113.7,173.229,112,170.51,112Zm0,6.494a1.907,1.907,0,1,1,1.907-1.907A1.907,1.907,0,0,1,170.505,118.494Z" transform="translate(-166.168 -112)" fill="#fff"/>
    </g>
  </g>
  <g id="Group_225" data-name="Group 225">
    <g id="Group_224" data-name="Group 224">
      <path id="Path_2231" data-name="Path 2231" d="M12,0A12.191,12.191,0,0,0,0,12.374,12.191,12.191,0,0,0,12,24.748,12.191,12.191,0,0,0,24,12.374,12.191,12.191,0,0,0,12,0Zm.7,19.93-.7.951-.7-.951c-.514-.693-5.012-6.885-5.012-9.97,0-3.7,2.24-6.093,5.711-6.093s5.711,2.392,5.711,6.093C17.711,13.04,13.212,19.232,12.7,19.93Z" fill="#fff"/>
    </g>
  </g>
</svg>
