<svg xmlns="http://www.w3.org/2000/svg" width="87.501" height="87.501" viewBox="0 0 87.501 87.501">
  <g id="icon_creation" transform="translate(-30 -20)">
    <path id="Path_1311" data-name="Path 1311" d="M177.714,106.331H120V30h46.543V41.17h11.17Z" transform="translate(-73.244 -8.138)" fill="#d0dce7"/>
    <path id="Path_1312" data-name="Path 1312" d="M300,220h11.17v5.585H300Z" transform="translate(-219.733 -162.765)" fill="#ffd400"/>
    <path id="Path_1313" data-name="Path 1313" d="M180,220h11.17v5.585H180Z" transform="translate(-122.074 -162.765)" fill="#ffd400"/>
    <path id="Path_1314" data-name="Path 1314" d="M462.793,420A2.793,2.793,0,1,1,460,422.793,2.794,2.794,0,0,1,462.793,420Z" transform="translate(-349.946 -325.531)" fill="#07cc66"/>
    <path id="Path_1315" data-name="Path 1315" d="M461.862,230A1.862,1.862,0,1,1,460,231.862,1.862,1.862,0,0,1,461.862,230Z" transform="translate(-349.946 -170.904)"/>
    <path id="Path_1316" data-name="Path 1316" d="M441.862,30A1.862,1.862,0,1,1,440,31.862,1.862,1.862,0,0,1,441.862,30Z" transform="translate(-333.669 -8.138)"/>
    <path id="Path_1317" data-name="Path 1317" d="M381.17,41.17H370V30Z" transform="translate(-276.701 -8.138)" fill="#a0b5c5"/>
    <path id="Path_1318" data-name="Path 1318" d="M137.714,138.884v7.447H80V70h7.447v68.884h50.267Z" transform="translate(-40.691 -40.691)" fill="#a0b5c5"/>
    <path id="Path_1319" data-name="Path 1319" d="M302.75,399.654v3.723H282.79v-3.723a13.1,13.1,0,0,1,2.454-2.26,13.026,13.026,0,0,1,17.506,2.26Z" transform="translate(-205.727 -305.185)" fill="#3256c1"/>
    <path id="Path_1320" data-name="Path 1320" d="M300,190h11.17v5.585H300Z" transform="translate(-219.733 -138.351)" fill="#5cbeff"/>
    <path id="Path_1321" data-name="Path 1321" d="M300,160h11.17v5.585H300Z" transform="translate(-219.733 -113.936)" fill="#3256c1"/>
    <path id="Path_1322" data-name="Path 1322" d="M300,130h11.17v5.585H300Z" transform="translate(-219.733 -89.521)" fill="#d94556"/>
    <path id="Path_1323" data-name="Path 1323" d="M316.044,345a4.654,4.654,0,1,1-4.654,4.654A4.654,4.654,0,0,1,316.044,345Z" transform="translate(-229.003 -264.494)" fill="#ffd5ab"/>
    <path id="Path_1324" data-name="Path 1324" d="M321.862,70A1.862,1.862,0,1,1,320,71.862,1.862,1.862,0,0,1,321.862,70Z" transform="translate(-236.01 -40.691)"/>
    <path id="Path_1325" data-name="Path 1325" d="M240,220h11.17v5.585H240Z" transform="translate(-170.904 -162.765)" fill="#5cbeff"/>
    <path id="Path_1326" data-name="Path 1326" d="M240,190h11.17v5.585H240Z" transform="translate(-170.904 -138.351)" fill="#3256c1"/>
    <path id="Path_1327" data-name="Path 1327" d="M240,160h11.17v5.585H240Z" transform="translate(-170.904 -113.936)" fill="#d94556"/>
    <path id="Path_1328" data-name="Path 1328" d="M240,130h11.17v5.585H240Z" transform="translate(-170.904 -89.521)" fill="#5cbeff"/>
    <path id="Path_1329" data-name="Path 1329" d="M217.867,397.394a13.1,13.1,0,0,0-2.454,2.26v3.723H200v-3.723A13,13,0,0,1,209.979,395,17.656,17.656,0,0,1,217.867,397.394Z" transform="translate(-138.351 -305.185)" fill="#d94556"/>
    <path id="Path_1330" data-name="Path 1330" d="M233.254,345a4.654,4.654,0,1,1-4.654,4.654A4.655,4.655,0,0,1,233.254,345Z" transform="translate(-161.626 -264.494)" fill="#ffd5ab"/>
    <path id="Path_1331" data-name="Path 1331" d="M180,190h11.17v5.585H180Z" transform="translate(-122.074 -138.351)" fill="#5cbeff"/>
    <path id="Path_1332" data-name="Path 1332" d="M180,160h11.17v5.585H180Z" transform="translate(-122.074 -113.936)" fill="#3256c1"/>
    <path id="Path_1333" data-name="Path 1333" d="M180,130h11.17v5.585H180Z" transform="translate(-122.074 -89.521)" fill="#d94556"/>
    <path id="Path_1334" data-name="Path 1334" d="M41.862,370A1.862,1.862,0,1,1,40,371.862,1.862,1.862,0,0,1,41.862,370Z" transform="translate(-8.138 -284.84)"/>
    <path id="Path_1335" data-name="Path 1335" d="M31.862,110A1.862,1.862,0,1,1,30,111.862,1.862,1.862,0,0,1,31.862,110Z" transform="translate(0 -73.244)"/>
    <path id="Path_1336" data-name="Path 1336" d="M373.032,34.894h-11.17A1.862,1.862,0,0,1,360,33.032V21.862a1.862,1.862,0,0,1,3.723,0V31.17h9.309a1.862,1.862,0,0,1,0,3.723Z" transform="translate(-268.563)"/>
    <path id="Path_1337" data-name="Path 1337" d="M129.575,140.054H71.862A1.862,1.862,0,0,1,70,138.193V61.862A1.862,1.862,0,0,1,71.862,60h7.447a1.862,1.862,0,1,1,0,3.723H73.723v72.607h53.99v-5.585a1.862,1.862,0,0,1,3.723,0v7.447A1.862,1.862,0,0,1,129.575,140.054Z" transform="translate(-32.553 -32.553)"/>
    <path id="Path_1338" data-name="Path 1338" d="M169.575,100.054H111.862A1.862,1.862,0,0,1,110,98.193V21.862A1.862,1.862,0,0,1,111.862,20H158.4a1.862,1.862,0,0,1,1.316.545l11.17,11.17a1.862,1.862,0,0,1,.545,1.316v65.16A1.862,1.862,0,0,1,169.575,100.054Zm-55.852-3.723h53.99V33.8l-10.08-10.08h-43.91Z" transform="translate(-65.106)"/>
    <path id="Path_1339" data-name="Path 1339" d="M307.906,348.032a6.516,6.516,0,1,1,6.516-6.516A6.523,6.523,0,0,1,307.906,348.032Zm0-9.309a2.793,2.793,0,1,0,2.793,2.793A2.8,2.8,0,0,0,307.906,338.723Z" transform="translate(-220.865 -256.356)"/>
    <path id="Path_1340" data-name="Path 1340" d="M294.611,397.1a1.862,1.862,0,0,1-1.862-1.862v-3.015a11.163,11.163,0,0,0-16.236,0v3.015a1.862,1.862,0,0,1-3.723,0v-3.723a1.862,1.862,0,0,1,.437-1.2,14.954,14.954,0,0,1,2.8-2.581,14.888,14.888,0,0,1,20.007,2.582,1.862,1.862,0,0,1,.436,1.2v3.723A1.862,1.862,0,0,1,294.611,397.1Z" transform="translate(-197.589 -297.047)"/>
    <path id="Path_1341" data-name="Path 1341" d="M225.116,348.032a6.516,6.516,0,1,1,6.518-6.516A6.523,6.523,0,0,1,225.116,348.032Zm0-9.309a2.793,2.793,0,1,0,2.794,2.793A2.8,2.8,0,0,0,225.116,338.723Z" transform="translate(-153.488 -256.356)"/>
    <path id="Path_1342" data-name="Path 1342" d="M191.862,397.1A1.862,1.862,0,0,1,190,395.24v-3.723a1.862,1.862,0,0,1,.436-1.2,14.866,14.866,0,0,1,11.4-5.318,19.372,19.372,0,0,1,8.858,2.667,1.862,1.862,0,0,1-1.94,3.178,15.945,15.945,0,0,0-6.918-2.121,11.145,11.145,0,0,0-8.117,3.5v3.015a1.862,1.862,0,0,1-1.862,1.862Z" transform="translate(-130.212 -297.047)"/>
    <path id="Path_1343" data-name="Path 1343" d="M171.862,129.309A1.862,1.862,0,0,1,170,127.447v-5.585A1.862,1.862,0,0,1,171.862,120h11.17a1.862,1.862,0,0,1,0,3.723h-9.309v3.723A1.862,1.862,0,0,1,171.862,129.309Z" transform="translate(-113.936 -81.383)"/>
    <path id="Path_1344" data-name="Path 1344" d="M231.862,129.309A1.862,1.862,0,0,1,230,127.447v-5.585A1.862,1.862,0,0,1,231.862,120h11.17a1.862,1.862,0,0,1,0,3.723h-9.309v3.723A1.862,1.862,0,0,1,231.862,129.309Z" transform="translate(-162.765 -81.383)"/>
    <path id="Path_1345" data-name="Path 1345" d="M303.032,129.309a1.862,1.862,0,0,1-1.862-1.862v-3.723h-7.447v3.723a1.862,1.862,0,1,1-3.723,0v-5.585A1.862,1.862,0,0,1,291.862,120h11.17a1.862,1.862,0,0,1,1.862,1.862v5.585A1.862,1.862,0,0,1,303.032,129.309Z" transform="translate(-211.595 -81.383)"/>
    <path id="Path_1346" data-name="Path 1346" d="M171.862,159.309A1.862,1.862,0,0,1,170,157.447v-5.585A1.862,1.862,0,0,1,171.862,150h11.17a1.862,1.862,0,0,1,0,3.723h-9.309v3.723A1.862,1.862,0,0,1,171.862,159.309Z" transform="translate(-113.936 -105.798)"/>
    <path id="Path_1347" data-name="Path 1347" d="M231.862,159.309A1.862,1.862,0,0,1,230,157.447v-5.585A1.862,1.862,0,0,1,231.862,150h11.17a1.862,1.862,0,0,1,0,3.723h-9.309v3.723A1.862,1.862,0,0,1,231.862,159.309Z" transform="translate(-162.765 -105.798)"/>
    <path id="Path_1348" data-name="Path 1348" d="M303.032,159.309a1.862,1.862,0,0,1-1.862-1.862v-3.723h-7.447v3.723a1.862,1.862,0,1,1-3.723,0v-5.585A1.862,1.862,0,0,1,291.862,150h11.17a1.862,1.862,0,0,1,1.862,1.862v5.585A1.862,1.862,0,0,1,303.032,159.309Z" transform="translate(-211.595 -105.798)"/>
    <path id="Path_1349" data-name="Path 1349" d="M171.862,189.309A1.862,1.862,0,0,1,170,187.447v-5.585A1.862,1.862,0,0,1,171.862,180h11.17a1.862,1.862,0,0,1,0,3.723h-9.309v3.723A1.862,1.862,0,0,1,171.862,189.309Z" transform="translate(-113.936 -130.212)"/>
    <path id="Path_1350" data-name="Path 1350" d="M231.862,189.309A1.862,1.862,0,0,1,230,187.447v-5.585A1.862,1.862,0,0,1,231.862,180h11.17a1.862,1.862,0,0,1,0,3.723h-9.309v3.723A1.862,1.862,0,0,1,231.862,189.309Z" transform="translate(-162.765 -130.212)"/>
    <path id="Path_1351" data-name="Path 1351" d="M303.032,189.309a1.862,1.862,0,0,1-1.862-1.862v-3.723h-7.447v3.723a1.862,1.862,0,1,1-3.723,0v-5.585A1.862,1.862,0,0,1,291.862,180h11.17a1.862,1.862,0,0,1,1.862,1.862v5.585A1.862,1.862,0,0,1,303.032,189.309Z" transform="translate(-211.595 -130.212)"/>
    <path id="Path_1352" data-name="Path 1352" d="M171.862,219.309A1.862,1.862,0,0,1,170,217.447v-5.585A1.862,1.862,0,0,1,171.862,210h11.17a1.862,1.862,0,0,1,0,3.723h-9.309v3.723A1.862,1.862,0,0,1,171.862,219.309Z" transform="translate(-113.936 -154.627)"/>
    <path id="Path_1353" data-name="Path 1353" d="M231.862,219.309A1.862,1.862,0,0,1,230,217.447v-5.585A1.862,1.862,0,0,1,231.862,210h11.17a1.862,1.862,0,0,1,0,3.723h-9.309v3.723A1.862,1.862,0,0,1,231.862,219.309Z" transform="translate(-162.765 -154.627)"/>
    <path id="Path_1354" data-name="Path 1354" d="M303.032,219.309a1.862,1.862,0,0,1-1.862-1.862v-3.723h-7.447v3.723a1.862,1.862,0,1,1-3.723,0v-5.585A1.862,1.862,0,0,1,291.862,210h11.17a1.862,1.862,0,0,1,1.862,1.862v5.585A1.862,1.862,0,0,1,303.032,219.309Z" transform="translate(-211.595 -154.627)"/>
    <path id="Path_1355" data-name="Path 1355" d="M171.862,249.309A1.862,1.862,0,0,1,170,247.447v-5.585A1.862,1.862,0,0,1,171.862,240h11.17a1.862,1.862,0,1,1,0,3.723h-9.309v3.723A1.862,1.862,0,0,1,171.862,249.309Z" transform="translate(-113.936 -179.042)"/>
    <path id="Path_1356" data-name="Path 1356" d="M231.862,249.309A1.862,1.862,0,0,1,230,247.447v-5.585A1.862,1.862,0,0,1,231.862,240h11.17a1.862,1.862,0,0,1,0,3.723h-9.309v3.723A1.862,1.862,0,0,1,231.862,249.309Z" transform="translate(-162.765 -179.042)"/>
    <path id="Path_1357" data-name="Path 1357" d="M303.032,249.309a1.862,1.862,0,0,1-1.862-1.862v-3.723h-7.447v3.723a1.862,1.862,0,0,1-3.723,0v-5.585A1.862,1.862,0,0,1,291.862,240h11.17a1.862,1.862,0,0,1,1.862,1.862v5.585A1.862,1.862,0,0,1,303.032,249.309Z" transform="translate(-211.595 -179.042)"/>
    <path id="Path_1358" data-name="Path 1358" d="M186.064,73.723h-24.2a1.862,1.862,0,0,1,0-3.723h24.2a1.862,1.862,0,1,1,0,3.723Z" transform="translate(-105.798 -40.691)"/>
    <path id="Path_1359" data-name="Path 1359" d="M454.654,419.309a4.654,4.654,0,1,1,4.654-4.654A4.66,4.66,0,0,1,454.654,419.309Zm0-5.585a.931.931,0,1,0,.931.931A.932.932,0,0,0,454.654,413.723Z" transform="translate(-341.807 -317.393)"/>
  </g>
</svg>
