<svg xmlns="http://www.w3.org/2000/svg" width="83.855" height="87.501" viewBox="0 0 83.855 87.501">
  <g id="icon_management" transform="translate(-30 -20)">
    <ellipse id="Ellipse_38" data-name="Ellipse 38" cx="4.5" cy="5.5" rx="4.5" ry="5.5" transform="translate(102.231 22.501)" fill="#07cc66"/>
    <path id="Path_1018" data-name="Path 1018" d="M53.646,50A3.646,3.646,0,1,1,50,53.646,3.645,3.645,0,0,1,53.646,50Z" transform="translate(-16.354 -24.531)" fill="#07cc66"/>
    <path id="Path_1019" data-name="Path 1019" d="M92.055,410.945H78.89v-4.659A8.506,8.506,0,0,1,87.4,397.78h1.416a8.506,8.506,0,0,1,8.508,8.506v4.659Z" transform="translate(-39.978 -308.913)" fill="#ffd400"/>
    <path id="Path_1020" data-name="Path 1020" d="M364.156,410.945H358.89v-4.659a8.506,8.506,0,0,1,8.508-8.506h1.417a8.506,8.506,0,0,1,8.508,8.506v4.659H364.156Z" transform="translate(-268.935 -308.913)" fill="#5cbeff"/>
    <path id="Path_1021" data-name="Path 1021" d="M180,393.691v-9.864a11.607,11.607,0,0,1,11.607-11.607H201a11.608,11.608,0,0,1,11.607,11.607v9.864Z" transform="translate(-122.656 -288.012)" fill="#d94556"/>
    <g id="Group_159" data-name="Group 159" transform="translate(42.863 65.574)">
      <path id="Path_1022" data-name="Path 1022" d="M385.816,340a5.267,5.267,0,1,1-5.267,5.267A5.265,5.265,0,0,1,385.816,340Z" transform="translate(-329.509 -327.239)" fill="#ffd5ab"/>
      <path id="Path_1023" data-name="Path 1023" d="M105.825,340a5.267,5.267,0,1,1-5.265,5.267A5.265,5.265,0,0,1,105.825,340Z" transform="translate(-100.56 -327.239)" fill="#ffd5ab"/>
      <path id="Path_1024" data-name="Path 1024" d="M227.649,270a9.317,9.317,0,1,1-9.319,9.317A9.317,9.317,0,0,1,227.649,270Z" transform="translate(-196.861 -270)" fill="#ffd5ab"/>
    </g>
    <path id="Path_1025" data-name="Path 1025" d="M461.823,170A1.823,1.823,0,1,1,460,171.823,1.824,1.824,0,0,1,461.823,170Z" transform="translate(-351.614 -122.656)"/>
    <path id="Path_1026" data-name="Path 1026" d="M461.823,330A1.823,1.823,0,1,1,460,331.823,1.824,1.824,0,0,1,461.823,330Z" transform="translate(-351.614 -253.489)"/>
    <path id="Path_1027" data-name="Path 1027" d="M341.823,330A1.823,1.823,0,1,1,340,331.823,1.824,1.824,0,0,1,341.823,330Z" transform="translate(-253.489 -253.489)"/>
    <path id="Path_1028" data-name="Path 1028" d="M271.823,190A1.823,1.823,0,1,1,270,191.823,1.824,1.824,0,0,1,271.823,190Z" transform="translate(-196.249 -139.01)"/>
    <path id="Path_1029" data-name="Path 1029" d="M211.823,220A1.823,1.823,0,1,1,210,221.823,1.824,1.824,0,0,1,211.823,220Z" transform="translate(-147.187 -163.541)"/>
    <path id="Path_1030" data-name="Path 1030" d="M51.823,170A1.823,1.823,0,1,1,50,171.823,1.824,1.824,0,0,1,51.823,170Z" transform="translate(-16.354 -122.656)"/>
    <path id="Path_1031" data-name="Path 1031" d="M51.823,320A1.823,1.823,0,1,1,50,321.823,1.824,1.824,0,0,1,51.823,320Z" transform="translate(-16.354 -245.312)"/>
    <path id="Path_1032" data-name="Path 1032" d="M31.823,450A1.823,1.823,0,1,1,30,451.823,1.824,1.824,0,0,1,31.823,450Z" transform="translate(0 -351.614)"/>
    <path id="Path_1033" data-name="Path 1033" d="M204.434,379.03a1.823,1.823,0,0,1-1.823-1.823v-1.559a9.8,9.8,0,0,0-9.784-9.784h-9.4a9.8,9.8,0,0,0-9.784,9.784v1.559a1.823,1.823,0,1,1-3.646,0v-1.559a13.445,13.445,0,0,1,13.43-13.43h9.4a13.445,13.445,0,0,1,13.43,13.43v1.559A1.823,1.823,0,0,1,204.434,379.03Z" transform="translate(-114.479 -279.834)"/>
    <path id="Path_1034" data-name="Path 1034" d="M204.434,467.292H171.823A1.823,1.823,0,0,1,170,465.469v-3.646a1.823,1.823,0,0,1,3.646,0v1.823h28.965v-1.823a1.823,1.823,0,1,1,3.646,0v3.646A1.823,1.823,0,0,1,204.434,467.292Z" transform="translate(-114.479 -359.791)"/>
    <path id="Path_1035" data-name="Path 1035" d="M369.145,404.591H350.713a1.823,1.823,0,0,1-1.823-1.823v-4.659a10.341,10.341,0,0,1,10.331-10.329h1.417a10.341,10.341,0,0,1,10.331,10.329v4.659A1.824,1.824,0,0,1,369.145,404.591Zm-16.609-3.646h14.786v-2.837a6.691,6.691,0,0,0-6.685-6.683H359.22a6.691,6.691,0,0,0-6.685,6.683v2.837Z" transform="translate(-260.758 -300.736)"/>
    <path id="Path_1036" data-name="Path 1036" d="M377.639,344.178a7.09,7.09,0,1,1,7.089-7.09A7.1,7.1,0,0,1,377.639,344.178Zm0-10.533a3.444,3.444,0,1,0,3.443,3.444A3.448,3.448,0,0,0,377.639,333.645Z" transform="translate(-278.469 -253.488)"/>
    <path id="Path_1037" data-name="Path 1037" d="M89.145,404.591H70.713a1.823,1.823,0,0,1-1.823-1.823v-4.659A10.341,10.341,0,0,1,79.221,387.78h1.416a10.341,10.341,0,0,1,10.331,10.329v4.659A1.823,1.823,0,0,1,89.145,404.591Zm-16.609-3.646H87.322v-2.837a6.691,6.691,0,0,0-6.685-6.683H79.221a6.691,6.691,0,0,0-6.685,6.683Z" transform="translate(-31.801 -300.736)"/>
    <path id="Path_1038" data-name="Path 1038" d="M97.648,344.178a7.09,7.09,0,1,1,7.089-7.09A7.1,7.1,0,0,1,97.648,344.178Zm0-10.533a3.444,3.444,0,1,0,3.444,3.444A3.446,3.446,0,0,0,97.648,333.645Z" transform="translate(-49.52 -253.488)"/>
    <path id="Path_1039" data-name="Path 1039" d="M219.472,282.28a11.14,11.14,0,1,1,11.14-11.14,11.153,11.153,0,0,1-11.14,11.14Zm0-18.634a7.494,7.494,0,1,0,7.494,7.494A7.5,7.5,0,0,0,219.472,263.646Z" transform="translate(-145.822 -196.249)"/>
    <path id="Path_1040" data-name="Path 1040" d="M51.983,72.5a1.823,1.823,0,0,1-1.7-1.174,31.255,31.255,0,0,1-1.413-4.858l-9.393-1.406a1.823,1.823,0,0,1-1.553-1.8V57.713a1.823,1.823,0,0,1,1.551-1.8l9.395-1.416a31.345,31.345,0,0,1,.962-3.6L42.4,44.978a1.823,1.823,0,0,1-.441-2.34l2.782-4.8a1.822,1.822,0,0,1,2.243-.782l8.848,3.475a31.391,31.391,0,0,1,2.624-2.624l-3.475-8.849a1.823,1.823,0,0,1,.783-2.243l4.8-2.78a1.822,1.822,0,0,1,2.34.441l5.921,7.431a31.2,31.2,0,0,1,3.6-.962l1.417-9.395A1.822,1.822,0,0,1,75.635,20h5.549a1.823,1.823,0,0,1,1.8,1.553l1.407,9.393a31.21,31.21,0,0,1,3.6.962l5.921-7.431a1.823,1.823,0,0,1,2.338-.442l4.809,2.78a1.823,1.823,0,0,1,.784,2.246l-3.483,8.845a30.955,30.955,0,0,1,2.632,2.626l8.848-3.475a1.823,1.823,0,0,1,2.245.785l2.771,4.8a1.823,1.823,0,0,1-.443,2.337L106.984,50.9a29.912,29.912,0,0,1,.963,3.6l9.389,1.415a1.823,1.823,0,0,1,1.551,1.8v5.551a1.823,1.823,0,0,1-1.553,1.8l-9.387,1.4a29.849,29.849,0,0,1-1.422,4.868,1.823,1.823,0,1,1-3.4-1.316,26.15,26.15,0,0,0,1.455-5.439,1.823,1.823,0,0,1,1.532-1.525l9.129-1.366V59.281l-9.131-1.376a1.823,1.823,0,0,1-1.53-1.524,26.209,26.209,0,0,0-1.455-5.44,1.823,1.823,0,0,1,.564-2.083l7.222-5.754-1.2-2.08-8.6,3.377a1.823,1.823,0,0,1-2.08-.546,27.231,27.231,0,0,0-3.994-3.984,1.823,1.823,0,0,1-.55-2.086l3.386-8.6-2.091-1.208L90.028,35.2a1.822,1.822,0,0,1-2.076.567,27.514,27.514,0,0,0-5.457-1.46,1.823,1.823,0,0,1-1.515-1.53l-1.367-9.129H77.2l-1.377,9.131a1.823,1.823,0,0,1-1.515,1.528,27.5,27.5,0,0,0-5.457,1.46,1.823,1.823,0,0,1-2.076-.567l-5.753-7.22-2.082,1.207,3.378,8.6a1.823,1.823,0,0,1-.546,2.08,27.682,27.682,0,0,0-3.988,3.988,1.823,1.823,0,0,1-2.08.546l-8.6-3.378L45.9,43.107l7.22,5.752a1.823,1.823,0,0,1,.568,2.074,27.626,27.626,0,0,0-1.46,5.458A1.823,1.823,0,0,1,50.7,57.906l-9.131,1.376v2.412L50.7,63.06a1.823,1.823,0,0,1,1.53,1.515,27.575,27.575,0,0,0,1.46,5.457,1.824,1.824,0,0,1-1.7,2.472Z" transform="translate(-6.476 0)"/>
    <path id="Path_1041" data-name="Path 1041" d="M188.282,151.875a1.823,1.823,0,0,1-1.823-1.823,16.406,16.406,0,0,0-32.813,0,1.823,1.823,0,1,1-3.646,0,20.052,20.052,0,0,1,40.1,0A1.823,1.823,0,0,1,188.282,151.875Z" transform="translate(-98.125 -89.948)"/>
    <path id="Path_1042" data-name="Path 1042" d="M45.469,50.938a5.469,5.469,0,1,1,5.469-5.469A5.475,5.475,0,0,1,45.469,50.938Zm0-7.292a1.823,1.823,0,1,0,1.823,1.823A1.825,1.825,0,0,0,45.469,43.646Z" transform="translate(-8.177 -16.354)"/>
    <path id="Path_1043" data-name="Path 1043" d="M417.292,34.584a7.292,7.292,0,1,1,7.292-7.292A7.3,7.3,0,0,1,417.292,34.584Zm0-10.938a3.646,3.646,0,1,0,3.646,3.646A3.65,3.65,0,0,0,417.292,23.646Z" transform="translate(-310.728 0)"/>
  </g>
</svg>
