<svg xmlns="http://www.w3.org/2000/svg" width="87.501" height="87.501" viewBox="0 0 87.501 87.501">
  <g id="icon_presentation" transform="translate(-30 -40)">
    <path id="Path_1213" data-name="Path 1213" d="M229.158,282.987a12.362,12.362,0,0,1-18.938,0,12.359,12.359,0,0,1,18.938,0Z" transform="translate(-145.939 -193.189)" fill="#d94556"/>
    <path id="Path_1214" data-name="Path 1214" d="M241.205,232.14a4.416,4.416,0,1,1-4.415,4.417,4.416,4.416,0,0,1,4.415-4.417Z" transform="translate(-167.454 -155.591)" fill="#ffd5ab"/>
    <path id="Path_1215" data-name="Path 1215" d="M219.729,207.364a12.3,12.3,0,0,1-2.9,7.949,12.341,12.341,0,0,0-9.469-4.417,4.416,4.416,0,1,0-4.415-4.415,4.415,4.415,0,0,0,4.415,4.415,12.34,12.34,0,0,0-9.469,4.417,12.364,12.364,0,1,1,21.833-7.949Z" transform="translate(-133.614 -125.516)" fill="#bce4ff"/>
    <path id="Path_1216" data-name="Path 1216" d="M443.8,50a3.8,3.8,0,1,1-3.8,3.8A3.8,3.8,0,0,1,443.8,50Z" transform="translate(-332.01 -8.098)" fill="#5cbeff"/>
    <path id="Path_1217" data-name="Path 1217" d="M451.9,160a1.9,1.9,0,1,1-1.9,1.9A1.9,1.9,0,0,1,451.9,160Z" transform="translate(-340.108 -97.174)"/>
    <path id="Path_1218" data-name="Path 1218" d="M451.9,360a1.9,1.9,0,1,1-1.9,1.9A1.9,1.9,0,0,1,451.9,360Z" transform="translate(-340.108 -259.13)"/>
    <path id="Path_1219" data-name="Path 1219" d="M433.8,240a3.8,3.8,0,1,1-3.8,3.8A3.8,3.8,0,0,1,433.8,240Z" transform="translate(-323.912 -161.956)" fill="#07cc66"/>
    <path id="Path_1220" data-name="Path 1220" d="M401.9,470a1.9,1.9,0,1,1-1.9,1.9A1.9,1.9,0,0,1,401.9,470Z" transform="translate(-299.619 -348.205)"/>
    <path id="Path_1221" data-name="Path 1221" d="M378.154,105.65a3.8,3.8,0,1,1-3.8,3.8A3.8,3.8,0,0,1,378.154,105.65Z" transform="translate(-278.848 -53.162)" fill="#07cc66"/>
    <path id="Path_1222" data-name="Path 1222" d="M378.154,374.35a3.806,3.806,0,1,1-2.69,1.115A3.8,3.8,0,0,1,378.154,374.35Z" transform="translate(-278.848 -270.75)" fill="#07cc66"/>
    <path id="Path_1223" data-name="Path 1223" d="M351.9,50a1.9,1.9,0,1,1-1.9,1.9A1.9,1.9,0,0,1,351.9,50Z" transform="translate(-259.13 -8.098)"/>
    <path id="Path_1224" data-name="Path 1224" d="M243.8,50a3.8,3.8,0,1,1-3.8,3.8A3.8,3.8,0,0,1,243.8,50Z" transform="translate(-170.054 -8.098)" fill="#07cc66"/>
    <path id="Path_1225" data-name="Path 1225" d="M243.8,430a3.8,3.8,0,1,1-3.8,3.8A3.8,3.8,0,0,1,243.8,430Z" transform="translate(-170.054 -315.814)" fill="#07cc66"/>
    <path id="Path_1226" data-name="Path 1226" d="M181.9,440a1.9,1.9,0,1,1-1.9,1.9A1.9,1.9,0,0,1,181.9,440Z" transform="translate(-121.467 -323.912)"/>
    <path id="Path_1227" data-name="Path 1227" d="M131.9,40a1.9,1.9,0,1,1-1.9,1.9A1.9,1.9,0,0,1,131.9,40Z" transform="translate(-80.978)"/>
    <path id="Path_1228" data-name="Path 1228" d="M109.454,105.65a3.8,3.8,0,1,1-3.8,3.8A3.8,3.8,0,0,1,109.454,105.65Z" transform="translate(-61.26 -53.162)" fill="#07cc66"/>
    <path id="Path_1229" data-name="Path 1229" d="M112.144,375.465a3.8,3.8,0,1,1-2.69-1.115A3.786,3.786,0,0,1,112.144,375.465Z" transform="translate(-61.26 -270.75)" fill="#07cc66"/>
    <circle id="Ellipse_43" data-name="Ellipse 43" cx="5.5" cy="5.5" r="5.5" transform="translate(32 114.501)" fill="#5cbeff"/>
    <path id="Path_1230" data-name="Path 1230" d="M53.8,240a3.8,3.8,0,1,1-3.8,3.8A3.8,3.8,0,0,1,53.8,240Z" transform="translate(-16.196 -161.956)" fill="#07cc66"/>
    <path id="Path_1231" data-name="Path 1231" d="M61.9,330a1.9,1.9,0,1,1-1.9,1.9A1.9,1.9,0,0,1,61.9,330Z" transform="translate(-24.293 -234.836)"/>
    <path id="Path_1232" data-name="Path 1232" d="M51.9,110a1.9,1.9,0,1,1-1.9,1.9A1.9,1.9,0,0,1,51.9,110Z" transform="translate(-16.196 -56.685)"/>
    <path id="Path_1233" data-name="Path 1233" d="M233.107,234.776a6.318,6.318,0,1,1,6.317-6.317A6.324,6.324,0,0,1,233.107,234.776Zm0-8.832a2.514,2.514,0,1,0,2.513,2.515A2.517,2.517,0,0,0,233.107,225.944Z" transform="translate(-159.357 -147.493)"/>
    <path id="Path_1234" data-name="Path 1234" d="M202.121,276.791a1.9,1.9,0,0,1-1.455-3.126,14.261,14.261,0,0,1,21.85,0,1.9,1.9,0,0,1-2.912,2.448,10.457,10.457,0,0,0-16.026,0A1.9,1.9,0,0,1,202.121,276.791Z" transform="translate(-137.841 -185.091)"/>
    <path id="Path_1235" data-name="Path 1235" d="M199.266,213.533a14.268,14.268,0,1,1,10.925-5.092A14.238,14.238,0,0,1,199.266,213.533Zm0-24.729a10.461,10.461,0,1,0,10.462,10.462A10.474,10.474,0,0,0,199.266,188.8Z" transform="translate(-125.516 -117.418)"/>
    <path id="Path_1236" data-name="Path 1236" d="M138.533,167.066a28.53,28.53,0,1,1,20.177-8.357A28.354,28.354,0,0,1,138.533,167.066Zm0-53.262a24.725,24.725,0,1,0,17.487,7.242A24.574,24.574,0,0,0,138.533,113.8Z" transform="translate(-64.782 -56.685)"/>
    <path id="Path_1237" data-name="Path 1237" d="M251.9,93.315a1.9,1.9,0,0,1-1.9-1.9V81.9a1.9,1.9,0,0,1,3.8,0v9.511A1.9,1.9,0,0,1,251.9,93.315Z" transform="translate(-178.152 -32.391)"/>
    <path id="Path_1238" data-name="Path 1238" d="M235.707,51.413a5.707,5.707,0,1,1,5.707-5.707A5.713,5.713,0,0,1,235.707,51.413Zm0-7.609a1.9,1.9,0,1,0,1.9,1.9A1.9,1.9,0,0,0,235.707,43.8Z" transform="translate(-161.956)"/>
    <path id="Path_1239" data-name="Path 1239" d="M251.9,383.315a1.9,1.9,0,0,1-1.9-1.9V371.9a1.9,1.9,0,0,1,3.8,0v9.511A1.9,1.9,0,0,1,251.9,383.315Z" transform="translate(-178.152 -267.227)"/>
    <path id="Path_1240" data-name="Path 1240" d="M235.707,431.413a5.707,5.707,0,1,1,5.707-5.707A5.713,5.713,0,0,1,235.707,431.413Zm0-7.609a1.9,1.9,0,1,0,1.9,1.9A1.9,1.9,0,0,0,235.707,423.8Z" transform="translate(-161.956 -307.716)"/>
    <path id="Path_1241" data-name="Path 1241" d="M336.752,140.321a1.9,1.9,0,0,1-1.345-3.247l6.726-6.726a1.9,1.9,0,0,1,2.69,2.69l-6.726,6.726A1.9,1.9,0,0,1,336.752,140.321Z" transform="translate(-246.862 -72.71)"/>
    <path id="Path_1242" data-name="Path 1242" d="M370.057,107.063a5.707,5.707,0,1,1,5.707-5.707A5.663,5.663,0,0,1,370.057,107.063Zm0-7.609a1.9,1.9,0,0,0-1.9,1.9,1.9,1.9,0,0,0,1.9,1.9,1.9,1.9,0,0,0,0-3.8Z" transform="translate(-270.75 -45.064)"/>
    <path id="Path_1243" data-name="Path 1243" d="M131.692,345.381a1.9,1.9,0,0,1-1.345-3.247l6.726-6.726a1.9,1.9,0,1,1,2.69,2.69l-6.726,6.726A1.9,1.9,0,0,1,131.692,345.381Z" transform="translate(-80.808 -238.764)"/>
    <path id="Path_1244" data-name="Path 1244" d="M101.357,375.763a5.706,5.706,0,1,1,5.707-5.707A5.713,5.713,0,0,1,101.357,375.763Zm0-7.609a1.9,1.9,0,1,0,1.9,1.9,1.9,1.9,0,0,0-1.9-1.9Z" transform="translate(-53.162 -262.652)"/>
    <path id="Path_1245" data-name="Path 1245" d="M381.413,253.8H371.9a1.9,1.9,0,0,1,0-3.8h9.511a1.9,1.9,0,0,1,0,3.8Z" transform="translate(-275.325 -170.054)"/>
    <path id="Path_1246" data-name="Path 1246" d="M425.707,241.413a5.707,5.707,0,1,1,5.707-5.707A5.713,5.713,0,0,1,425.707,241.413Zm0-7.609a1.9,1.9,0,1,0,1.9,1.9A1.9,1.9,0,0,0,425.707,233.8Z" transform="translate(-315.814 -153.858)"/>
    <path id="Path_1247" data-name="Path 1247" d="M91.413,253.8H81.9a1.9,1.9,0,0,1,0-3.8h9.511a1.9,1.9,0,1,1,0,3.8Z" transform="translate(-40.489 -170.054)"/>
    <path id="Path_1248" data-name="Path 1248" d="M45.707,241.413a5.707,5.707,0,1,1,5.707-5.707A5.713,5.713,0,0,1,45.707,241.413Zm0-7.609a1.9,1.9,0,1,0,1.9,1.9A1.9,1.9,0,0,0,45.707,233.8Z" transform="translate(-8.098 -153.858)"/>
    <path id="Path_1249" data-name="Path 1249" d="M343.479,345.381a1.9,1.9,0,0,1-1.345-.557l-6.726-6.726a1.9,1.9,0,0,1,2.69-2.69l6.726,6.726a1.9,1.9,0,0,1-1.345,3.247Z" transform="translate(-246.862 -238.764)"/>
    <path id="Path_1250" data-name="Path 1250" d="M370.057,375.763a5.707,5.707,0,1,1,5.707-5.707A5.713,5.713,0,0,1,370.057,375.763Zm0-7.609a1.9,1.9,0,0,0-1.9,1.9,1.9,1.9,0,1,0,1.9-1.9Z" transform="translate(-270.75 -262.652)"/>
    <path id="Path_1251" data-name="Path 1251" d="M138.419,140.32a1.9,1.9,0,0,1-1.345-.557l-6.726-6.726a1.9,1.9,0,0,1,2.69-2.69l6.726,6.726a1.9,1.9,0,0,1-1.345,3.247Z" transform="translate(-80.808 -72.71)"/>
    <path id="Path_1252" data-name="Path 1252" d="M101.357,107.063a5.708,5.708,0,1,1,4.033-1.67,5.713,5.713,0,0,1-4.033,1.67Zm0-7.609a1.9,1.9,0,0,0,0,3.8,1.9,1.9,0,0,0,1.9-1.9A1.9,1.9,0,0,0,101.357,99.454Z" transform="translate(-53.162 -45.064)"/>
    <path id="Path_1253" data-name="Path 1253" d="M37.609,435.218a7.609,7.609,0,1,1,7.609-7.609A7.617,7.617,0,0,1,37.609,435.218Zm0-11.413a3.8,3.8,0,1,0,3.8,3.8A3.809,3.809,0,0,0,37.609,423.8Z" transform="translate(0 -307.716)"/>
    <path id="Path_1254" data-name="Path 1254" d="M435.707,51.413a5.707,5.707,0,1,1,5.707-5.707A5.713,5.713,0,0,1,435.707,51.413Zm0-7.609a1.9,1.9,0,1,0,1.9,1.9A1.9,1.9,0,0,0,435.707,43.8Z" transform="translate(-323.912)"/>
  </g>
</svg>
