<svg xmlns="http://www.w3.org/2000/svg" xmlns:xlink="http://www.w3.org/1999/xlink" width="362.705" height="383.891" viewBox="0 0 362.705 383.891">
  <defs>
    <clipPath id="clip-path">
      <rect id="SVGID" width="215.2" height="236.628" fill="none"/>
    </clipPath>
    <linearGradient id="linear-gradient" x1="-3.824" y1="-3.41" x2="-3.467" y2="-0.994" gradientUnits="objectBoundingBox">
      <stop offset="0.004" stop-color="#e38ddd"/>
      <stop offset="1" stop-color="#9571f6"/>
    </linearGradient>
    <clipPath id="clip-path-2">
      <path id="SVGID-2" data-name="SVGID" d="M1634.516,2112.135c.02,18.349-.715,37.022-.795,55.5,9.669,4.018,21.141,8.508,27.288-2.99,8.546-15.985,40.129-12.992,54.152-8.828,17.356,5.154,55.907,12.808,55.855-13.816-.043-22.163-8.858-35.8,17.677-41.214s41.109-19.9,37.448-44.422c-3.852-25.8,27.684-48.867,10.806-70.01-29.408-36.841-78.427,18.689-87.405,54.87s-25.85,22.27-50.863,21.868c-34.148-.548-16.972,36.7-32.877,46.829C1653.333,2117.865,1646.911,2113.6,1634.516,2112.135Z" transform="translate(-1633.721 -1974.235)" fill="none"/>
    </clipPath>
    <clipPath id="clip-path-3">
      <path id="SVGID-3" data-name="SVGID" d="M1987.75,1688.9q-20.14-2.962-40.228-6.848c-.218.2-4.619-28.988,9.244-44.294,27.414-29.651,8.948-56.263,3.681-72.031-8.43-22.235-4.109-49.261,20.381-44.2,23.859,4.359,27.478-44.76,23.36-82.6-3.515-18.417,13.863-40.763,31.2-45.871,17.7-5.658,35.369,5.923,40.783,42.634,8.2,42.505-22.824,68.138-34.311,89.449-11.3,20.92,14.99,37.846-6.172,56.382-17.8,16.47-40.235,28.31-32.028,49C2012.1,1650.978,2010.078,1667.7,1987.75,1688.9Z" transform="translate(-1946.689 -1391.7)" fill="none"/>
    </clipPath>
    <linearGradient id="linear-gradient-2" x1="-1.882" y1="-0.918" x2="-2.619" y2="0.004" gradientUnits="objectBoundingBox">
      <stop offset="0" stop-color="#ffc444"/>
      <stop offset="0.996" stop-color="#f36f56"/>
    </linearGradient>
    <linearGradient id="linear-gradient-3" x1="1.122" y1="0.536" x2="0.01" y2="0.466" xlink:href="#linear-gradient-2"/>
    <linearGradient id="linear-gradient-4" x1="-33.818" y1="18.474" x2="-33.218" y2="20.205" xlink:href="#linear-gradient-2"/>
    <linearGradient id="linear-gradient-5" x1="-2.974" y1="7.168" x2="-2.301" y2="4.306" gradientUnits="objectBoundingBox">
      <stop offset="0" stop-color="#ff9085"/>
      <stop offset="1" stop-color="#fb6fbb"/>
    </linearGradient>
    <linearGradient id="linear-gradient-6" x1="-12.904" y1="4.038" x2="-11.914" y2="4.038" gradientUnits="objectBoundingBox">
      <stop offset="0" stop-color="#444b8c"/>
      <stop offset="0.996" stop-color="#26264f"/>
    </linearGradient>
    <linearGradient id="linear-gradient-7" x1="-61.969" y1="2.265" x2="-60.662" y2="0.465" xlink:href="#linear-gradient-2"/>
    <linearGradient id="linear-gradient-8" x1="-21.698" y1="6.417" x2="-20.732" y2="6.417" xlink:href="#linear-gradient-6"/>
    <linearGradient id="linear-gradient-9" x1="-61.052" y1="4.518" x2="-59.993" y2="2.629" xlink:href="#linear-gradient-2"/>
    <linearGradient id="linear-gradient-10" x1="3.094" y1="0.661" x2="2.167" y2="-0.002" gradientUnits="objectBoundingBox">
      <stop offset="0" stop-color="#311944"/>
      <stop offset="1" stop-color="#893976"/>
    </linearGradient>
    <linearGradient id="linear-gradient-11" x1="3.359" y1="0.676" x2="2.303" y2="0.002" xlink:href="#linear-gradient-10"/>
    <linearGradient id="linear-gradient-12" x1="1.733" y1="0.945" x2="0.64" y2="0.294" xlink:href="#linear-gradient-10"/>
    <linearGradient id="linear-gradient-13" x1="0.265" y1="0.845" x2="0.905" y2="-0.295" xlink:href="#linear-gradient-5"/>
    <linearGradient id="linear-gradient-14" x1="2.27" y1="-5.262" x2="2.326" y2="-7.032" xlink:href="#linear-gradient-2"/>
    <linearGradient id="linear-gradient-15" x1="-25.967" y1="-1.996" x2="-26.645" y2="-3.545" gradientUnits="objectBoundingBox">
      <stop offset="0" stop-color="#311944"/>
      <stop offset="1" stop-color="#6b3976"/>
    </linearGradient>
    <linearGradient id="linear-gradient-16" x1="-4.871" y1="-4.123" x2="-4.906" y2="-0.961" xlink:href="#linear-gradient-2"/>
    <linearGradient id="linear-gradient-17" x1="-31.123" y1="-3.233" x2="-31.926" y2="-5.36" xlink:href="#linear-gradient-15"/>
    <linearGradient id="linear-gradient-18" x1="-143.433" y1="-64.274" x2="-143.249" y2="-59.377" gradientUnits="objectBoundingBox">
      <stop offset="0" stop-color="#ffc444"/>
      <stop offset="1" stop-color="#f36f56"/>
    </linearGradient>
    <linearGradient id="linear-gradient-19" x1="0.422" y1="0.122" x2="0.581" y2="1.149" xlink:href="#linear-gradient-2"/>
    <linearGradient id="linear-gradient-20" x1="0.277" y1="0.954" x2="1.355" y2="-0.762" xlink:href="#linear-gradient-5"/>
    <linearGradient id="linear-gradient-21" x1="0.317" y1="0.83" x2="1.122" y2="-0.839" xlink:href="#linear-gradient-5"/>
    <linearGradient id="linear-gradient-22" x1="2.28" y1="0.49" x2="3.391" y2="0.511" gradientUnits="objectBoundingBox">
      <stop offset="0" stop-color="#aa80f9"/>
      <stop offset="0.996" stop-color="#6165d7"/>
    </linearGradient>
    <linearGradient id="linear-gradient-23" x1="-5.04" y1="-13.023" x2="-6.794" y2="-16.469" xlink:href="#linear-gradient-22"/>
    <linearGradient id="linear-gradient-24" x1="-5.046" y1="-16.489" x2="-6.799" y2="-20.8" xlink:href="#linear-gradient-22"/>
    <linearGradient id="linear-gradient-25" x1="2.853" y1="-0.351" x2="2.548" y2="2.052" gradientUnits="objectBoundingBox">
      <stop offset="0" stop-color="#40447e"/>
      <stop offset="0.996" stop-color="#3c3b6b"/>
    </linearGradient>
    <linearGradient id="linear-gradient-26" x1="1.346" y1="0.5" x2="2.346" y2="0.5" xlink:href="#linear-gradient-25"/>
    <linearGradient id="linear-gradient-27" x1="2.797" y1="-0.274" x2="2.446" y2="1.886" xlink:href="#linear-gradient-25"/>
    <linearGradient id="linear-gradient-28" x1="0" y1="0.5" x2="1" y2="0.5" xlink:href="#linear-gradient-25"/>
    <linearGradient id="linear-gradient-29" x1="2.288" y1="0.485" x2="3.399" y2="0.515" xlink:href="#linear-gradient-2"/>
    <linearGradient id="linear-gradient-30" x1="-5.025" y1="-20.703" x2="-6.778" y2="-26.104" xlink:href="#linear-gradient-2"/>
    <linearGradient id="linear-gradient-31" x1="-6.407" y1="-19.814" x2="-8.159" y2="-24.967" xlink:href="#linear-gradient-2"/>
    <linearGradient id="linear-gradient-32" x1="8.328" y1="0.755" x2="8.073" y2="0.459" xlink:href="#linear-gradient-2"/>
    <linearGradient id="linear-gradient-33" x1="0.683" y1="0.923" x2="1.256" y2="2.441" xlink:href="#linear-gradient"/>
    <linearGradient id="linear-gradient-34" x1="0" y1="0.5" x2="1" y2="0.5" xlink:href="#linear-gradient-22"/>
    <linearGradient id="linear-gradient-42" x1="0" y1="0.5" x2="1" y2="0.5" xlink:href="#linear-gradient-6"/>
    <linearGradient id="linear-gradient-43" x1="0.575" y1="0.243" x2="0.37" y2="0.947" xlink:href="#linear-gradient-22"/>
  </defs>
  <g id="photo" transform="translate(-494.767 -417.579)">
    <g id="Illustration" transform="translate(494.767 417.579)">
      <g id="Group_218" data-name="Group 218">
        <path id="Path_2166" data-name="Path 2166" d="M681.733,423.111c-39.267,15.613-43.028,55.525-78.384,58.95-30.807,2.985-42.516-25.906-64.133-20.73-32.928,7.885-53.63,86.389-40.405,150.938,13.655,66.651,71.029,155.256,166.079,161.3,106.714,6.789,187.46-95.159,192.39-184.624.533-9.675,3.682-90.742-58.295-138.63C795.889,447.926,734.816,402,681.733,423.111Z" transform="translate(-494.767 -417.579)" fill="#f4f7fa"/>
        <g id="Group_195" data-name="Group 195" transform="translate(141.434 118.406)">
          <g id="Group_194" data-name="Group 194" clip-path="url(#clip-path)">
            <g id="Group_193" data-name="Group 193" transform="translate(3.145 5.249)">
              <g id="Group_188" data-name="Group 188" transform="translate(0 73.947)">
                <g id="Group_187" data-name="Group 187">
                  <path id="Path_2167" data-name="Path 2167" d="M1684.393,2167.241c-2.413-1.14-6.659-5.749-7.27-7.407-4.068-11.031-13.026-31.191-8.51-42.772.771-1.978,10.387-.934,12.249-2.376,6.293-.823,8.526-.718,14.124-4.439,16.527-10.985-1.273-47.411,33.045-47.088,25.137.237,41.871,14.338,50.88-21.89s58-91.7,87.415-54.882c16.883,21.132-14.664,44.211-10.806,70.011,3.666,24.516-10.913,39.007-37.45,44.422s-17.7,19.037-17.678,41.217c.032,26.643-38.436,18.916-55.892,13.833C1730.444,2151.779,1691.89,2150.84,1684.393,2167.241Z" transform="translate(-1663.1 -1974.267)" fill="url(#linear-gradient)"/>
                  <g id="Group_186" data-name="Group 186">
                    <g id="Group_185" data-name="Group 185" clip-path="url(#clip-path-2)">
                      <g id="Group_184" data-name="Group 184" transform="translate(9.682 -6.902)" opacity="0.8" style="mix-blend-mode: soft-light;isolation: isolate">
                        <path id="Path_2168" data-name="Path 2168" d="M1710.056,2126.742l-.064-.451a214.252,214.252,0,0,0,63.633-19.365,221.893,221.893,0,0,0,53.347-36.5c31.416-28.917,55.66-67.225,70.112-110.78l.433.143c-14.476,43.629-38.763,82-70.236,110.973a222.362,222.362,0,0,1-53.457,36.575A214.718,214.718,0,0,1,1710.056,2126.742Z" transform="translate(-1709.992 -1954.595)" fill="#fcfdfe"/>
                        <path id="Path_2169" data-name="Path 2169" d="M2171.986,3197.223c-19.332-14.094-55.444-25.991-80.5-26.522l.01-.456c25.135.533,61.363,12.47,80.759,26.61Z" transform="translate(-2043.059 -3011.522)" fill="#fcfdfe"/>
                        <path id="Path_2170" data-name="Path 2170" d="M1842.755,2722.244l-.187-.416c11.9-5.333,20.642-16.473,25.989-33.111,3.919-12.194,5.956-27,6.055-44.015l.456,0c-.1,17.06-2.144,31.915-6.077,44.152C1863.6,2705.623,1854.776,2716.856,1842.755,2722.244Z" transform="translate(-1825.739 -2552.692)" fill="#fcfdfe"/>
                        <path id="Path_2171" data-name="Path 2171" d="M2666.574,2746.893l-.207-.406c21.866-11.183,47.472-7.782,65.1-2.96l-.12.44C2713.8,2739.166,2688.311,2735.777,2666.574,2746.893Z" transform="translate(-2544.965 -2635.023)" fill="#fcfdfe"/>
                        <path id="Path_2172" data-name="Path 2172" d="M2928.534,1988.376l-.423-.171c4.47-11.021,10.063-34.534-2.693-68.178l.426-.162a119.563,119.563,0,0,1,7.66,34.169C2934.316,1966.687,2932.644,1978.242,2928.534,1988.376Z" transform="translate(-2771.133 -1919.865)" fill="#fcfdfe"/>
                      </g>
                    </g>
                  </g>
                </g>
              </g>
              <g id="Group_192" data-name="Group 192" transform="translate(39.728)">
                <g id="Group_191" data-name="Group 191">
                  <g id="Group_190" data-name="Group 190" clip-path="url(#clip-path-3)">
                    <path id="Path_2173" data-name="Path 2173" d="M1987.75,1688.9q-20.14-2.962-40.228-6.848c-.218.2-4.619-28.988,9.244-44.294,27.414-29.651,8.948-56.263,3.681-72.031-8.345-22.219-3.956-46.279,18.658-46.635,25.082-.885,29.629-42.4,25.083-80.165-3.515-18.417,13.863-40.763,31.2-45.871,17.7-5.658,35.369,5.923,40.783,42.634,8.2,42.505-22.824,68.138-34.311,89.449-11.3,20.92,14.99,37.846-6.172,56.382-17.8,16.47-40.235,28.31-32.028,49C2012.1,1650.978,2010.078,1667.7,1987.75,1688.9Z" transform="translate(-1946.689 -1391.7)" fill="url(#linear-gradient-2)"/>
                    <g id="Group_189" data-name="Group 189" transform="translate(6.826 -9.016)" opacity="0.8" style="mix-blend-mode: soft-light;isolation: isolate">
                      <path id="Path_2174" data-name="Path 2174" d="M2125.225,1628.621l-.456-.005c0-.259,12.823-61.64,34.948-121.4,3.056-9.678,6.375-19.437,9.585-28.874,8.6-25.272,17.485-51.406,21.707-77.428,4.719-29.09,3.037-55.29-5.142-80.1l.433-.143c8.2,24.88,9.89,51.151,5.159,80.314-4.228,26.06-13.123,52.212-21.725,77.5-3.209,9.435-6.528,19.192-9.586,28.875C2138.1,1566.908,2125.254,1628.273,2125.225,1628.621Z" transform="translate(-2108.99 -1320.673)" fill="#fcfdfe"/>
                      <path id="Path_2175" data-name="Path 2175" d="M2599.133,1741.537l-.339-.305c14.969-16.632,33.031-40.268,42.733-52.966,7.571-9.908,7.837-10.184,8.13-10.137l-.07.45.035-.225.086.206c-.381.25-3.664,4.545-7.819,9.983C2632.183,1701.246,2614.115,1724.892,2599.133,1741.537Z" transform="translate(-2522.842 -1632.751)" fill="#fcfdfe"/>
                      <path id="Path_2176" data-name="Path 2176" d="M2427.12,1649.563c-3.1-19.1-10.974-31.653-17.03-38.823-6.746-7.986-12.824-11.35-13.435-11.406a.167.167,0,0,0,.1-.032l-.254-.379c.12-.079.276-.056.618.093,1.655.72,7.84,4.589,14.331,12.657,8.178,10.164,13.752,23.241,16.12,37.817Z" transform="translate(-2346.227 -1563.563)" fill="#fcfdfe"/>
                      <path id="Path_2177" data-name="Path 2177" d="M2066.914,2490.924l-.453-.054c2.113-17.743-2.022-36.827-12.287-56.722a165.048,165.048,0,0,0-20.291-30.207c-.561-.669-.791-.944-.855-1.055l.394-.229c.047.082.384.483.81.991a165.476,165.476,0,0,1,20.346,30.291C2064.887,2453.917,2069.037,2473.089,2066.914,2490.924Z" transform="translate(-2028.894 -2265.311)" fill="#fcfdfe"/>
                      <path id="Path_2178" data-name="Path 2178" d="M2345.018,2758.543l-.388-.24c16.086-25.988,49.99-27.8,50.281-27.707l.17.214-.156.224-.072-.213-.021.222h-.006C2394.23,2731.043,2360.965,2732.78,2345.018,2758.543Zm49.76-27.941.073.215Z" transform="translate(-2300.941 -2551.619)" fill="#fcfdfe"/>
                      <path id="Path_2179" data-name="Path 2179" d="M2018.939,3385.942l-.456-.017c.284-7.728-2.478-20.9-17.246-39.764-.789-1.008-.789-1.008-.77-1.142l.451.065-.226-.032.211-.081c.04.075.342.462.693.909C2016.45,3364.854,2019.226,3378.138,2018.939,3385.942Z" transform="translate(-2000.463 -3088.008)" fill="#fcfdfe"/>
                      <path id="Path_2180" data-name="Path 2180" d="M2169.872,3354.637l-.438-.127c1.7-5.865,8.392-17.357,34.113-28.431.357-.153.587-.252.669-.294l.208.406c-.085.044-.325.147-.7.308C2178.178,3337.5,2171.55,3348.85,2169.872,3354.637Z" transform="translate(-2147.985 -3071.257)" fill="#fcfdfe"/>
                    </g>
                  </g>
                </g>
              </g>
            </g>
          </g>
        </g>
        <g id="Group_202" data-name="Group 202" transform="translate(107.218 23.544)">
          <g id="Group_198" data-name="Group 198" transform="translate(100.85)">
            <g id="Group_197" data-name="Group 197">
              <path id="Path_2181" data-name="Path 2181" d="M2135.669,620.844c14.758-6.224,28.832-4.545,35.858-1.9,8.307,3.126,11.063,5.472,18.416,6.652,6.536,1.049,13.322-5.769,18.416-.95a8.043,8.043,0,0,1,1.24,1.425c3.65,5.365-.662,11.844.531,23.165.61,5.792,2.087,7.4,3.453,18.532.52,4.233.411,4.857.266,5.346-2.232,7.512-19.941,6.092-32.405,2.851-17.184-4.468-22.716-11.962-34-8.553a29.715,29.715,0,0,0-11.687,7.128C2136.908,656.719,2134.518,638.663,2135.669,620.844Z" transform="translate(-2135.161 -614.852)" fill="url(#linear-gradient-3)"/>
              <g id="Group_196" data-name="Group 196">
                <path id="Path_2182" data-name="Path 2182" d="M2134.577,776.257a.694.694,0,0,1-.695-.695V603.747a.694.694,0,1,1,1.389,0V775.562A.694.694,0,0,1,2134.577,776.257Z" transform="translate(-2133.882 -603.052)" fill="#26264f"/>
              </g>
            </g>
          </g>
          <g id="Group_201" data-name="Group 201" transform="translate(0 38.551)">
            <path id="Path_2183" data-name="Path 2183" d="M2115.352,1081.035l1.243-1.733a2.313,2.313,0,0,1,.166-1.576l.4-.666a1.523,1.523,0,0,1,1.535-.148.756.756,0,0,0,.677-.084c.6-.411.755.722.755.722a.741.741,0,0,1,.045.942,1.43,1.43,0,0,1-.531.977,14.837,14.837,0,0,1-1.77.876l-1.389,1.671Z" transform="translate(-2016.854 -1055.159)" fill="url(#linear-gradient-4)"/>
            <path id="Path_2184" data-name="Path 2184" d="M1772,1029.429c-8.889,3.54-14.592,2.154-17.251,1.156a32.836,32.836,0,0,1-6.539-3.553c-4.52-3.249-6.288-6.481-10.744-7.181a10.387,10.387,0,0,0-2.423-.1c-6.426.569-13.579,9.072-12.66,14.728,1.595,9.805,28.892,19.9,43.882,8.989a25.111,25.111,0,0,0,8.474-11.684Z" transform="translate(-1673.703 -1005.38)" fill="url(#linear-gradient-5)"/>
            <path id="Path_2185" data-name="Path 2185" d="M1653.851,1893.743c-.366.336-.389,1.122-.4,1.635a1.268,1.268,0,0,0,.02.423c.222.576,1.365.568,3.163.642,2.842.116,3.7.288,3.891-.146.183-.407-.357-1.021-.418-1.089a2.6,2.6,0,0,0-1.442-.673c-1.359-.357-2.274-.542-2.551-.6C1654.381,1893.586,1654.091,1893.522,1653.851,1893.743Z" transform="translate(-1613.579 -1768.342)" fill="url(#linear-gradient-6)"/>
            <path id="Path_2186" data-name="Path 2186" d="M1656.847,1872.3l.111,3.234a1.749,1.749,0,0,1-1.809.126l-.558-3.2Z" transform="translate(-1614.582 -1749.736)" fill="url(#linear-gradient-7)"/>
            <path id="Path_2187" data-name="Path 2187" d="M1841.941,1892.166a1.593,1.593,0,0,0-.267,1.9c.37.476.981.166,2.66.306,1.8.15,2.246.6,3.489.328.5-.11,1.393-.4,1.4-.75,0-.249-.436-.4-1.895-.978a19.335,19.335,0,0,0-2.5-.955C1843.706,1891.773,1842.587,1891.526,1841.941,1892.166Z" transform="translate(-1777.734 -1766.722)" fill="url(#linear-gradient-8)"/>
            <path id="Path_2188" data-name="Path 2188" d="M1840.163,1872.3l.743,3.054a1.751,1.751,0,0,1-1.794.264l-1.186-2.989Z" transform="translate(-1774.644 -1749.736)" fill="url(#linear-gradient-9)"/>
            <path id="Path_2189" data-name="Path 2189" d="M1708.6,1350.377a281.976,281.976,0,0,0,5.334,67.174l-3.508.746a29.373,29.373,0,0,1-7.7-13.535c-.9-3.824-.432-5.739-.886-10.408-.722-7.433-2.776-11.417-4.795-17.489a97.976,97.976,0,0,1-4.648-23.983Z" transform="translate(-1647.594 -1294.063)" fill="url(#linear-gradient-10)"/>
            <path id="Path_2190" data-name="Path 2190" d="M1706.985,1404.9c-1.288-5.1-3.768-6.448-3.857-11.261-.062-3.4,1.161-3.683,1.08-6.942-.123-4.943-3.019-7.535-4.474-10.644-1.536-3.284-2.125-8.558,2.016-17.331l-9.347,1.446a97.975,97.975,0,0,0,4.648,23.983c2.019,6.071,4.073,10.055,4.795,17.488.454,4.669-.018,6.584.886,10.408a29.375,29.375,0,0,0,7.7,13.535l.892-.19a17.248,17.248,0,0,1-4.334-9.387C1706.546,1411.783,1708.283,1410.046,1706.985,1404.9Z" transform="translate(-1647.594 -1301.353)" opacity="0.3" fill="url(#linear-gradient-11)" style="mix-blend-mode: multiply;isolation: isolate"/>
            <path id="Path_2191" data-name="Path 2191" d="M1602.218,1344.036q-2.087,19.213-3.822,39.157-1.3,14.963-2.314,29.557l-3.556.247a41.186,41.186,0,0,1-3.176-9.7c-.989-5.109-.537-8.088-.81-13.342-.306-5.894-1.136-7.219-2.333-14.7-2.43-15.177-3.645-22.765.209-27.239C1587.666,1346.561,1591.537,1342.957,1602.218,1344.036Z" transform="translate(-1552.899 -1288.353)" fill="url(#linear-gradient-12)"/>
            <path id="Path_2192" data-name="Path 2192" d="M1486.1,1003.1a76.931,76.931,0,0,1,45.708-1.29l1.912,10.7a127.44,127.44,0,0,1-.208,14.139c-.4,5.721-.795,5.807-1.715,13.883-1.5,13.167-.873,16.608-3.519,18.189-1.721,1.029-2.344-.213-11.127-1.084-5.889-.583-8.9-.855-11.878.154-4.061,1.374-5.42,3.682-7.1,2.931-1.607-.72-1.811-3.494-2.005-8.33-.3-7.46-.281-12.531-.308-14.346-.127-8.328-2.235-14.686-4.936-22.83A110.235,110.235,0,0,0,1486.1,1003.1Z" transform="translate(-1467.482 -987.243)" fill="url(#linear-gradient-13)"/>
            <g id="Group_200" data-name="Group 200" transform="translate(38.607)">
              <path id="Path_2193" data-name="Path 2193" d="M1650.889,934.466a24.493,24.493,0,0,1-.7,4.866c-.323,1.289-.523,1.616-.77,1.876-.372.392-.921.709-3.96,1.292-1.654.317-1.863.3-1.908.455-.218.781,4.088,3.711,8.721,3.308,2.835-.247,5.481-1.716,5.369-2.567s-2.948-.552-3.7-2.131c-.526-1.1.208-2.58,1.048-3.794C1654.313,936.33,1651.562,935.907,1650.889,934.466Z" transform="translate(-1643.545 -930.947)" fill="url(#linear-gradient-14)"/>
              <g id="Group_199" data-name="Group 199" transform="translate(5.251)">
                <path id="Path_2194" data-name="Path 2194" d="M1692.185,911.37a2.964,2.964,0,0,0,.121-3.4,3.228,3.228,0,0,0-2.26-1.153c-1.786-.3-4.095.326-4.972,1.938-.52.955.383,3.047.521,3.421.157.424.475.583.759.912.394.457,1.009,1.182,2.013,2.394a7.4,7.4,0,0,1,.474-1.2,6.543,6.543,0,0,1,.93-1.388C1690.768,911.806,1691.511,912.173,1692.185,911.37Z" transform="translate(-1684.914 -906.745)" fill="url(#linear-gradient-15)"/>
                <path id="Path_2195" data-name="Path 2195" d="M1691.367,937.914a4.022,4.022,0,0,0,3.439,1.974c2.114-.025,2.675-4.732,1.383-5.807a2.663,2.663,0,0,0-2.065-.38c-.438.1-.594.27-1.313.416-.663.135-.844.052-1.051.208-.258.195-.466.695-.127,2.1a1.148,1.148,0,0,0-1.2-.467.724.724,0,0,0-.3.258C1689.81,936.738,1690.266,937.454,1691.367,937.914Z" transform="translate(-1689.381 -930.227)" fill="url(#linear-gradient-16)"/>
                <path id="Path_2196" data-name="Path 2196" d="M1692.887,936.677c.1.081-.233.444-.285.979a2.583,2.583,0,0,0,1.956,2.509c.632.1.828-.277,1.884-.332a4.816,4.816,0,0,1,1.528.17,2.537,2.537,0,0,1-.894,2.769,2.642,2.642,0,0,1-2.315-.044,3.019,3.019,0,0,1-1.659-1.359c-.464-.926.068-1.442-.488-2.081a4.9,4.9,0,0,1-1.01-1.09,2.965,2.965,0,0,1-.192-.411C1691.987,937.239,1692.745,936.559,1692.887,936.677Z" transform="translate(-1690.588 -932.865)" fill="url(#linear-gradient-17)"/>
                <path id="Path_2197" data-name="Path 2197" d="M1727.66,965.945a2.566,2.566,0,0,1-1.252.127c-.038,0-.081,0-.087.024a.967.967,0,0,0,.936.329c.335-.075.608-.374.568-.456C1727.809,965.935,1727.735,965.936,1727.66,965.945Z" transform="translate(-1721.065 -958.425)" fill="url(#linear-gradient-18)"/>
              </g>
            </g>
            <path id="Path_2198" data-name="Path 2198" d="M1528.928,1293.572l2.12-.119s2.322-1.943,3.379-1.822a9.07,9.07,0,0,1,2.831,1.009c.193.154-.578,1.016-1.35.932s-2.492.332-2.8,1.012-1.644,1.09-1.87.691l-2.849.565Z" transform="translate(-1504.399 -1242.769)" fill="url(#linear-gradient-19)"/>
            <path id="Path_2199" data-name="Path 2199" d="M1364.578,1057.672a5.124,5.124,0,0,1-.863,3.73c-2.8,3.59-12.322,2.122-17.981-2.686a18.522,18.522,0,0,1-6.325-14.037c.16-9.662,9.115-19.13,22.435-22.4l5.915,17.682c-8.212.125-13.2,6.316-12.462,10.735C1355.85,1053.987,1359.689,1056.948,1364.578,1057.672Z" transform="translate(-1339.408 -1007.611)" fill="url(#linear-gradient-20)"/>
            <path id="Path_2200" data-name="Path 2200" d="M1567.744,1189.458c-4.32-1.843-4.3-5.658-8.33-7.25-5.758-2.272-12.119,3.006-13.112,1.542-1.034-1.523,6.564-6.193,5.553-10.8-.8-3.66-6.107-3.011-8.947-8.021-2.695-4.753-.082-9.146-2.468-10.8-.856-.592-2.365-.826-5.227.433,2,6.232,3.426,11.728,3.53,18.54.028,1.815.009,6.886.308,14.346.194,4.836.4,7.61,2.005,8.33,1.676.751,3.035-1.556,7.1-2.931,2.982-1.009,5.988-.738,11.878-.154,8.783.871,9.406,2.113,11.127,1.084,1.121-.67,1.654-1.678,2.01-3.612A10.749,10.749,0,0,1,1567.744,1189.458Z" transform="translate(-1510.359 -1122.311)" opacity="0.3" fill="url(#linear-gradient-21)" style="mix-blend-mode: multiply;isolation: isolate"/>
          </g>
        </g>
        <g id="Group_212" data-name="Group 212" transform="translate(53.306 189.255)">
          <g id="Group_205" data-name="Group 205">
            <g id="Group_203" data-name="Group 203">
              <path id="Path_2201" data-name="Path 2201" d="M1021.823,1973.884q-36.681,1.3-73.338,2.97c-6.735.306-12.225-7.133-12.373-16.623q-.049-3.219-.1-6.438c-.15-9.49,5.132-17.741,11.9-18.427q36.833-3.732,73.735-7.1Q1021.737,1951.076,1021.823,1973.884Z" transform="translate(-933.304 -1925.756)" fill="#d8dee8"/>
              <path id="Path_2202" data-name="Path 2202" d="M992.9,1958.724q-31.048,1.385-62.075,3.03c-8.777.371-15.924-9.345-16.123-21.673,0-.045,0-.09,0-.135-.2-12.328,6.671-23.106,15.5-24.024q31.189-3.847,62.438-7.432c1.1-.106,13.822.993,13.826,2.345s-11.866,2.417-12.954,2.516q-31.653,3.366-63.25,7c-7.132.7-12.7,9.387-12.55,19.366,0,.045,0,.09,0,.136.157,9.979,5.954,17.811,13.05,17.469q31.042-1.858,62.11-3.456c1.084-.049,13.74,1.271,13.742,2.623S993.991,1958.681,992.9,1958.724Z" transform="translate(-914.697 -1908.483)" fill="url(#linear-gradient-22)"/>
            </g>
            <g id="Group_204" data-name="Group 204" transform="translate(76.079 0.007)">
              <path id="Path_2203" data-name="Path 2203" d="M1691.136,1970.887q-74.937-.174-149.845,1.172-.113-22.744-.225-45.489,75.375.608,150.708,2.744Q1691.455,1950.1,1691.136,1970.887Z" transform="translate(-1537.634 -1924.281)" fill="#f4f7fa"/>
              <path id="Path_2204" data-name="Path 2204" d="M1669.378,1915.961q-76.706-2.075-153.458-2.565a2.24,2.24,0,0,1-1.892-2.443,2.17,2.17,0,0,1,1.867-2.414q76.8.7,153.551,2.991c.863.026,1.545,1.038,1.526,2.26S1670.239,1915.984,1669.378,1915.961Z" transform="translate(-1514.028 -1908.539)" fill="url(#linear-gradient-23)"/>
              <path id="Path_2205" data-name="Path 2205" d="M1670.428,2262.308q-76.308-.084-152.582,1.409a2.17,2.17,0,0,1-1.88-2.394,2.237,2.237,0,0,1,1.855-2.462q76.321-1.281,152.676-.984c.859,0,1.537,1,1.518,2.219S1671.286,2262.309,1670.428,2262.308Z" transform="translate(-1515.721 -2213.484)" fill="url(#linear-gradient-24)"/>
            </g>
          </g>
          <g id="Group_207" data-name="Group 207" transform="translate(1.426 47.076)">
            <path id="Path_2206" data-name="Path 2206" d="M1013.981,2296.215h-.014l-2.316-.018-10.085.305-59.558,2.077a15.322,15.322,0,0,0-5.024.963c-6.862,2.585-11.53,9.965-11.015,18.477l.009.111c.565,9.42,7.295,17.041,15.52,18.208a15.254,15.254,0,0,0,2.594.15l49.865-1.947,7.9-.31,3.041-.119,8.772-.39,1.833-.121h.014l.625.025,1.272-.026.036-.362.146-1.6.018-.193.119-1.3,2.808-30.67.178-1.942.082-.926.077-.734Z" transform="translate(-925.929 -2293.774)" fill="url(#linear-gradient-25)"/>
            <g id="Group_206" data-name="Group 206" transform="translate(73.577)">
              <path id="Path_2207" data-name="Path 2207" d="M1680.681,2329.142l-131.408.824c-10.933.068-19.981-6.3-20.263-14.248l-.191-5.409c-.283-8,8.375-14.63,19.391-14.789l132.445-1.9Z" transform="translate(-1525.86 -2291.803)" fill="#f4f7fa"/>
              <path id="Path_2208" data-name="Path 2208" d="M1661.794,2318.544l-138.4.808c-9.469.055-17.444-8.3-17.818-18.66l0-.114c-.375-10.414,7.054-19.038,16.6-19.178l139.609-2.065a1.825,1.825,0,0,1,1.8,1.886,1.887,1.887,0,0,1-1.795,1.936l-139.491,1.941c-7.693.107-13.69,7.05-13.394,15.447l0,.115c.3,8.365,6.732,15.1,14.373,15.053l138.52-.928a1.819,1.819,0,0,1,1.782,1.87A1.845,1.845,0,0,1,1661.794,2318.544Z" transform="translate(-1505.554 -2279.334)" fill="url(#linear-gradient-26)"/>
            </g>
          </g>
          <g id="Group_211" data-name="Group 211" transform="translate(0.978 84.799)">
            <path id="Path_2209" data-name="Path 2209" d="M1013.223,2838.919l-2.175.073-7.942.269-4.235.146-36.306,1.226-1.523.055-6.894.232-11.043.374-4.464.15a10.975,10.975,0,0,0-4.039.862,12.658,12.658,0,0,0-2.492,1.4c-5.458,3.866-9.18,12.246-9.18,21.866v.146c0,13.126,6.964,24.128,15.746,24.529l72.4,2.02,4.606.128.251-2.567.125-1.245,4.276-42.667.3-2.457.323-2.663v0l.114-1.7.018-.442Z" transform="translate(-922.863 -2805.378)" fill="url(#linear-gradient-27)"/>
            <g id="Group_208" data-name="Group 208" transform="translate(76.207 34.02)">
              <path id="Path_2210" data-name="Path 2210" d="M1697.435,2862.431v44.275l-36.1,1.427-91.692,3.616a22.472,22.472,0,0,1-8.123-1.158c-7.979-2.713-13.635-9.816-13.635-18.379v-7.642c0-10.149,7.976-18.657,18.308-20.348a23.191,23.191,0,0,1,3.491-.305l80.364-.935Z" transform="translate(-1544.698 -2860.156)" fill="#f4f7fa"/>
              <path id="Path_2211" data-name="Path 2211" d="M1678.457,2890.95c0,1.3-.7,2.385-1.555,2.421l-34.623,1.418-100.679,4.117a13.474,13.474,0,0,1-6.764-1.523c-7.1-3.584-12.089-13.072-12.089-24.393v-.159c0-14.663,8.437-26.7,18.841-26.886l.063,0,2.9-.031,84.581-.887,47.773-.512h.009c.852,0,1.546,1.069,1.546,2.368s-.7,2.379-1.555,2.387l-1.236.025-48.319.642-83.34,1.1-2.346.032c-8.416.11-15.267,9.831-15.267,21.671v.159c0,10.952,5.852,19.792,13.4,20.8a10.7,10.7,0,0,0,1.839.086l95.47-3.625,38.573-1.464,1.231-.046C1677.763,2888.62,1678.457,2889.646,1678.457,2890.95Z" transform="translate(-1522.747 -2844.509)" fill="url(#linear-gradient-28)"/>
            </g>
            <g id="Group_209" data-name="Group 209">
              <path id="Path_2212" data-name="Path 2212" d="M1029.491,2623.143l-73.325,1.652a11.8,11.8,0,0,1-12.113-11.915v-4.567a13.078,13.078,0,0,1,12.113-12.944l73.325-4.577Z" transform="translate(-941.305 -2588.979)" fill="#d8dee8"/>
              <path id="Path_2213" data-name="Path 2213" d="M1000.273,2612.138l-62.088,1.737a15.4,15.4,0,0,1-15.78-15.536v-.1a17.073,17.073,0,0,1,15.78-16.874l62.088-4.856c1.089-.069,13.72.748,13.72,1.705s-11.8,1.682-12.879,1.746l-62.929,4.547a13.756,13.756,0,0,0-12.772,13.6v.1a12.411,12.411,0,0,0,12.772,12.52l62.088-2.038c1.081-.029,13.72.945,13.72,1.9S1001.361,2612.114,1000.273,2612.138Z" transform="translate(-922.405 -2576.509)" fill="url(#linear-gradient-29)"/>
            </g>
            <g id="Group_210" data-name="Group 210" transform="translate(76.002 0.004)">
              <path id="Path_2214" data-name="Path 2214" d="M1697.435,2590.78v29.485l-45.712.424-85.127.784-6.939.064-2.993.027-7.943.073-.831.009v-32.257l8.084.013h.009l4.085.071.388.02,35.8.34Z" transform="translate(-1544.492 -2587.758)" fill="#f4f7fa"/>
              <path id="Path_2215" data-name="Path 2215" d="M1675.489,2581.242l-152.5-1.257a1.818,1.818,0,0,1-1.867-1.74,1.778,1.778,0,0,1,1.867-1.7l152.5,1.558a1.58,1.58,0,0,1,1.551,1.586A1.545,1.545,0,0,1,1675.489,2581.242Z" transform="translate(-1521.127 -2576.541)" fill="url(#linear-gradient-30)"/>
              <path id="Path_2216" data-name="Path 2216" d="M1677.045,2821.6a1.555,1.555,0,0,1-1.546,1.561h-.009l-47.786.513-84.594.879-2.922.034-.114.115-17.079.284h-.018a1.928,1.928,0,0,1-1.764-1.3,2.257,2.257,0,0,1-.078-.464,1.12,1.12,0,0,1,0-.127,1.826,1.826,0,0,1,1.865-1.759h.059l1.486-.019,8.772-.075,95.983-.79,44.959-.375,1.236-.022A1.534,1.534,0,0,1,1677.045,2821.6Z" transform="translate(-1521.13 -2789.147)" fill="url(#linear-gradient-31)"/>
            </g>
            <path id="Path_2217" data-name="Path 2217" d="M1358.637,2965.165l-16.372-.935c-3.957-11.28-3.658-22.156,0-35.389l16.372.05A73.236,73.236,0,0,0,1358.637,2965.165Z" transform="translate(-1286.474 -2884.116)" fill="#fff" opacity="0.5" style="mix-blend-mode: soft-light;isolation: isolate"/>
            <path id="Path_2218" data-name="Path 2218" d="M1031.446,2728.409l-.521-20.422-18.795,20.69s-10.156,5.474-8.412,15.085l11.619-4.622,10.32,3.576S1025.916,2732.622,1031.446,2728.409Z" transform="translate(-993.221 -2691.298)" opacity="0.3" fill="url(#linear-gradient-32)" style="mix-blend-mode: multiply;isolation: isolate"/>
            <path id="Path_2219" data-name="Path 2219" d="M1002.438,2709.265l20.908-1.278s-9.833,7.471-5.268,34.729c0,0-8.938-2.839-12.827-7.7l-9.112,8.747S990.576,2719.528,1002.438,2709.265Z" transform="translate(-985.642 -2691.298)" fill="url(#linear-gradient-33)"/>
          </g>
        </g>
        <g id="Group_213" data-name="Group 213" transform="translate(19.651 204.072)">
          <path id="Path_2220" data-name="Path 2220" d="M709.014,2033.929a1.5,1.5,0,0,0-1.962.766l-57.4,157.335a1.593,1.593,0,0,0,2.97,1.081l57.4-157.335A1.493,1.493,0,0,0,709.014,2033.929Z" transform="translate(-649.576 -2032.728)" fill="url(#linear-gradient-34)"/>
          <rect id="Rectangle_62" data-name="Rectangle 62" width="38.754" height="3.192" rx="1.596" transform="translate(50.657 21.022)" fill="url(#linear-gradient-34)"/>
          <rect id="Rectangle_63" data-name="Rectangle 63" width="38.754" height="3.192" rx="1.596" transform="translate(40.171 49.746)" fill="url(#linear-gradient-34)"/>
          <rect id="Rectangle_64" data-name="Rectangle 64" width="38.754" height="3.192" rx="1.596" transform="translate(29.684 78.925)" fill="url(#linear-gradient-34)"/>
          <rect id="Rectangle_65" data-name="Rectangle 65" width="38.754" height="3.192" rx="1.596" transform="translate(18.742 109.017)" fill="url(#linear-gradient-34)"/>
          <rect id="Rectangle_66" data-name="Rectangle 66" width="38.754" height="3.192" rx="1.596" transform="translate(8.255 137.74)" fill="url(#linear-gradient-34)"/>
          <path id="Path_2221" data-name="Path 2221" d="M985.328,2025.322a1.544,1.544,0,0,0-2.026.792L924.018,2188.8a1.646,1.646,0,0,0,3.068,1.118l59.284-162.685A1.544,1.544,0,0,0,985.328,2025.322Z" transform="translate(-889.112 -2025.21)" fill="url(#linear-gradient-34)"/>
        </g>
        <g id="Group_217" data-name="Group 217" transform="translate(220.776 266.424)">
          <path id="Path_2222" data-name="Path 2222" d="M2383.379,2659.613v39.4l1.327-.046c.857-.032,1.6.994,1.6,2.3s-.675,2.385-1.532,2.421l-34.612,1.418c-.967-.725-1.9-1.5-2.793-2.3-.825-.743-1.625-1.518-2.391-2.325a41.459,41.459,0,0,1-9.737-40.227q.376-1.32.848-2.6.424-1.162.921-2.289c.237-.547.488-1.09.748-1.623s.547-1.089.844-1.623a41.855,41.855,0,0,1,8.754-11.084,41.248,41.248,0,0,1,30.784-13.787,35.865,35.865,0,0,1,5.239.342v24.156l1.327-.009a1.584,1.584,0,0,1,1.6,1.555,1.566,1.566,0,0,1-1.523,1.587c.853,0,1.557,1.044,1.557,2.343s-.783,2.366-1.64,2.375Z" transform="translate(-2320.926 -2613.176)" opacity="0.3" fill="url(#linear-gradient-28)" style="mix-blend-mode: multiply;isolation: isolate"/>
          <g id="Group_216" data-name="Group 216" transform="translate(0 0)">
            <circle id="Ellipse_66" data-name="Ellipse 66" cx="41.531" cy="41.531" r="41.531" transform="translate(0 58.733) rotate(-45)" fill="url(#linear-gradient-42)"/>
            <g id="Group_215" data-name="Group 215" transform="translate(20.335 14.07)">
              <circle id="Ellipse_67" data-name="Ellipse 67" cx="41.531" cy="41.531" r="41.531" fill="url(#linear-gradient-43)"/>
              <path id="Path_2223" data-name="Path 2223" d="M2494.082,2688.474a38.667,38.667,0,1,1-38.667-38.667c.357,0,.711,0,1.065.015A38.666,38.666,0,0,1,2494.082,2688.474Z" transform="translate(-2413.884 -2646.943)" fill="url(#linear-gradient-34)"/>
              <g id="Group_214" data-name="Group 214" transform="translate(6.805 23.763)">
                <path id="Path_2224" data-name="Path 2224" d="M2482.52,2814.44l-34.726,10.585,34.726,10.585,34.726-10.585Z" transform="translate(-2447.794 -2814.44)" fill="#fff"/>
                <path id="Path_2225" data-name="Path 2225" d="M2571.039,2964.622l-21.855-6.662v15.219a5.291,5.291,0,0,0,4.19,5.176,77.638,77.638,0,0,0,33.829.081,5.279,5.279,0,0,0,4.082-5.151v-14.834Z" transform="translate(-2536.313 -2939.741)" fill="#fff"/>
                <path id="Path_2226" data-name="Path 2226" d="M2473.108,2946.65a5.308,5.308,0,0,1-4.981.053,1.114,1.114,0,0,1-.528-1.191l3.091-15.367,3.067,15.251A1.13,1.13,0,0,1,2473.108,2946.65Z" transform="translate(-2465.065 -2915.458)" fill="#fff"/>
                <path id="Path_2227" data-name="Path 2227" d="M2518.11,2885.472l-29.551,3.14v5.126h.876l.09-4.493Z" transform="translate(-2483.384 -2876.455)" fill="#fff"/>
              </g>
              <path id="Path_2228" data-name="Path 2228" d="M2617.641,2688.576a38.669,38.669,0,0,1-59.368,32.66c3.636-9.892,14.149-20.51,25.03-27.164,20.145-12.316,4.837-34.568-3.264-44.147A38.667,38.667,0,0,1,2617.641,2688.576Z" transform="translate(-2537.444 -2647.046)" fill="#fff" opacity="0.6" style="mix-blend-mode: soft-light;isolation: isolate"/>
            </g>
          </g>
        </g>
      </g>
    </g>
  </g>
</svg>
