<svg xmlns="http://www.w3.org/2000/svg" xmlns:xlink="http://www.w3.org/1999/xlink" width="24" height="24" viewBox="0 0 24 24">
  <defs>
    <linearGradient id="linear-gradient" x1="0.119" y1="0.881" x2="0.83" y2="0.17" gradientUnits="objectBoundingBox">
      <stop offset="0" stop-color="#fee411"/>
      <stop offset="0.052" stop-color="#fedb16"/>
      <stop offset="0.138" stop-color="#fec125"/>
      <stop offset="0.248" stop-color="#fe983d"/>
      <stop offset="0.376" stop-color="#fe5f5e"/>
      <stop offset="0.5" stop-color="#fe2181"/>
      <stop offset="1" stop-color="#9000dc"/>
    </linearGradient>
  </defs>
  <g id="_001-instagram" data-name="001-instagram" transform="translate(0 -0.137)">
    <circle id="Ellipse_68" data-name="Ellipse 68" cx="12" cy="12" r="12" transform="translate(0 0.137)" fill="url(#linear-gradient)"/>
    <g id="Group_226" data-name="Group 226" transform="translate(5.355 5.415)">
      <path id="Path_2232" data-name="Path 2232" d="M140.338,131H135.23a4.132,4.132,0,0,0-4.13,4.13v5.108a4.132,4.132,0,0,0,4.13,4.13h5.108a4.132,4.132,0,0,0,4.13-4.13V135.13A4.132,4.132,0,0,0,140.338,131Zm2.637,9.243a2.645,2.645,0,0,1-2.642,2.643h-5.109a2.645,2.645,0,0,1-2.642-2.643v-5.108a2.645,2.645,0,0,1,2.642-2.643h5.109a2.645,2.645,0,0,1,2.642,2.643Z" transform="translate(-131.1 -131)" fill="#fff"/>
      <path id="Path_2233" data-name="Path 2233" d="M195.518,192.1a3.418,3.418,0,1,0,3.418,3.418A3.424,3.424,0,0,0,195.518,192.1Zm0,5.494a2.075,2.075,0,1,1,2.075-2.075A2.077,2.077,0,0,1,195.518,197.594Z" transform="translate(-188.837 -188.832)" fill="#fff"/>
      <circle id="Ellipse_69" data-name="Ellipse 69" cx="0.578" cy="0.578" r="0.578" transform="matrix(0.987, -0.16, 0.16, 0.987, 9.605, 2.595)" fill="#fff"/>
    </g>
  </g>
</svg>
