<svg id="Group_221" data-name="Group 221" xmlns="http://www.w3.org/2000/svg" width="24.922" height="24" viewBox="0 0 24.922 24">
  <path id="Path_2229" data-name="Path 2229" d="M21.27,3.513a12.8,12.8,0,0,0-17.622,0,11.689,11.689,0,0,0,0,16.971,12.8,12.8,0,0,0,17.622,0,11.689,11.689,0,0,0,0-16.971Zm-2.4,13.2,0,0v0l-.631.6a3.408,3.408,0,0,1-3.136.864A11.254,11.254,0,0,1,11.9,16.8a14.728,14.728,0,0,1-2.53-1.964,14.509,14.509,0,0,1-1.89-2.208A11.036,11.036,0,0,1,6.056,9.857a3.118,3.118,0,0,1,.831-3.268l.739-.712a.542.542,0,0,1,.746,0l0,0,2.334,2.248a.5.5,0,0,1,0,.718l0,0-1.371,1.32a1.047,1.047,0,0,0-.116,1.4,15.612,15.612,0,0,0,1.641,1.844,15.8,15.8,0,0,0,2.16,1.748,1.158,1.158,0,0,0,1.437-.12l1.325-1.3a.542.542,0,0,1,.746,0l0,0L18.87,16A.5.5,0,0,1,18.871,16.715Z" transform="translate(0 0)" fill="#fff"/>
</svg>
