<svg xmlns="http://www.w3.org/2000/svg" width="29.653" height="30.688" viewBox="0 0 29.653 30.688">
  <g id="icon_timer" transform="translate(-40 -20)">
    <path id="Path_1360" data-name="Path 1360" d="M82.52,110a12.52,12.52,0,1,0,12.52,12.52A12.521,12.521,0,0,0,82.52,110Z" transform="translate(-28.023 -85.011)" fill="#3f4751"/>
    <path id="Path_1361" data-name="Path 1361" d="M265.492,378.146l1.5,1.5a9.851,9.851,0,0,1-6.989,2.9V379.9a7.223,7.223,0,0,0,5.125-2.123Z" transform="translate(-205.503 -335.146)" fill="#19ab5c"/>
    <path id="Path_1362" data-name="Path 1362" d="M342.539,300a9.851,9.851,0,0,1-2.9,6.989l-1.5-1.5-.366-.366A7.223,7.223,0,0,0,339.9,300Z" transform="translate(-278.158 -262.254)" fill="#07cc66"/>
    <path id="Path_1363" data-name="Path 1363" d="M342.539,200.929H339.9a7.223,7.223,0,0,0-2.123-5.125l1.863-1.864A9.851,9.851,0,0,1,342.539,200.929Z" transform="translate(-278.158 -162.916)" fill="#faa71a"/>
    <path id="Path_1364" data-name="Path 1364" d="M266.989,152.9l-1.863,1.864A7.223,7.223,0,0,0,260,152.636V150A9.851,9.851,0,0,1,266.989,152.9Z" transform="translate(-205.503 -121.734)" fill="#ffd400"/>
    <path id="Path_1365" data-name="Path 1365" d="M125.01,154.759a7.223,7.223,0,0,0-5.125-2.123V150a9.884,9.884,0,0,0,0,19.769v-2.636a7.248,7.248,0,0,0,5.125-12.374Z" transform="translate(-65.387 -122.375)" fill="#fff"/>
    <g id="Group_164" data-name="Group 164" transform="translate(40.659 21.977)">
      <path id="Path_1366" data-name="Path 1366" d="M241.318,280A1.318,1.318,0,1,1,240,281.318,1.318,1.318,0,0,1,241.318,280Z" transform="translate(-227.48 -265.414)" fill="#d94556"/>
      <path id="Path_1367" data-name="Path 1367" d="M51.318,430A1.318,1.318,0,1,1,50,431.318,1.318,1.318,0,0,1,51.318,430Z" transform="translate(-50 -405.901)" fill="#d94556"/>
      <path id="Path_1368" data-name="Path 1368" d="M61.647,50A1.647,1.647,0,1,1,60,51.647,1.647,1.647,0,0,1,61.647,50Z" transform="translate(-59.341 -50)" fill="#d94556"/>
      <path id="Path_1369" data-name="Path 1369" d="M371.318,70A1.318,1.318,0,1,1,370,71.318,1.318,1.318,0,0,1,371.318,70Z" transform="translate(-348.914 -68.682)" fill="#d94556"/>
    </g>
    <path id="Path_1370" data-name="Path 1370" d="M242.636,70v2.7a12.705,12.705,0,0,0-2.636,0V70Z" transform="translate(-186.821 -46.705)" fill="#545b66"/>
    <path id="Path_1371" data-name="Path 1371" d="M210.931,30a1.318,1.318,0,0,1,0,2.636h-4.613a1.318,1.318,0,0,1,0-2.636Z" transform="translate(-154.127 -9.341)" fill="#757d8c"/>
    <path id="Path_1372" data-name="Path 1372" d="M470.659,370a.659.659,0,1,1-.659.659A.659.659,0,0,1,470.659,370Z" transform="translate(-401.665 -327.653)"/>
    <path id="Path_1373" data-name="Path 1373" d="M460.659,120a.659.659,0,1,1-.659.659A.659.659,0,0,1,460.659,120Z" transform="translate(-392.324 -93.615)"/>
    <path id="Path_1374" data-name="Path 1374" d="M430.659,450a.659.659,0,1,1-.659.659A.659.659,0,0,1,430.659,450Z" transform="translate(-364.301 -402.607)"/>
    <path id="Path_1375" data-name="Path 1375" d="M40.659,130a.659.659,0,1,1-.659.659A.659.659,0,0,1,40.659,130Z" transform="translate(0 -102.977)"/>
    <path id="Path_1376" data-name="Path 1376" d="M110.543,161.086A10.545,10.545,0,1,1,118,158,10.471,10.471,0,0,1,110.543,161.086Zm0-19.769a9.227,9.227,0,1,0,6.523,2.7A9.162,9.162,0,0,0,110.543,141.318Z" transform="translate(-56.046 -113.034)"/>
    <path id="Path_1377" data-name="Path 1377" d="M250.659,195.815a.659.659,0,1,1,0-1.318,6.59,6.59,0,0,0,0-13.179.659.659,0,1,1,0-1.318,7.907,7.907,0,0,1,0,15.815Z" transform="translate(-196.162 -150.084)"/>
    <path id="Path_1378" data-name="Path 1378" d="M231.977,273.954a1.977,1.977,0,1,1,1.977-1.977A1.979,1.979,0,0,1,231.977,273.954Zm0-2.636a.659.659,0,1,0,.659.659A.66.66,0,0,0,231.977,271.318Z" transform="translate(-177.48 -234.087)"/>
    <path id="Path_1379" data-name="Path 1379" d="M52.306,44.613a2.306,2.306,0,1,1,2.306-2.306A2.309,2.309,0,0,1,52.306,44.613Zm0-3.295a.988.988,0,1,0,.988.988A.99.99,0,0,0,52.306,41.318Z" transform="translate(-9.341 -18.682)"/>
    <path id="Path_1380" data-name="Path 1380" d="M328.431,187.119a.659.659,0,0,1-.46-1.13l1.858-1.858.023-.022a.659.659,0,0,1,.9.959l-1.858,1.858-.023.022A.657.657,0,0,1,328.431,187.119Z" transform="translate(-268.809 -153.492)"/>
    <path id="Path_1381" data-name="Path 1381" d="M144.59,376.157a.659.659,0,0,1-.488-1.1l.022-.023,1.5-1.5a.659.659,0,1,1,.932.932l-1.495,1.494A.658.658,0,0,1,144.59,376.157Z" transform="translate(-97.083 -330.819)"/>
    <path id="Path_1382" data-name="Path 1382" d="M146.094,186.748a.657.657,0,0,1-.466-.193l-1.5-1.5a.659.659,0,0,1,.931-.933l1.5,1.5a.659.659,0,0,1-.466,1.125Z" transform="translate(-97.089 -153.483)"/>
    <path id="Path_1383" data-name="Path 1383" d="M330.3,370.962a.656.656,0,0,1-.465-.193l-1.864-1.864a.659.659,0,1,1,.932-.932l1.863,1.863a.659.659,0,0,1-.466,1.126Z" transform="translate(-268.818 -325.621)"/>
    <path id="Path_1384" data-name="Path 1384" d="M102.777,291.318h-2.118a.659.659,0,1,1,0-1.318h2.118a.659.659,0,1,1,0,1.318Z" transform="translate(-56.046 -252.761)"/>
    <path id="Path_1385" data-name="Path 1385" d="M250.659,224.613a.659.659,0,0,1-.659-.659v-3.295a.659.659,0,0,1,1.318,0v3.295A.659.659,0,0,1,250.659,224.613Z" transform="translate(-196.162 -187.28)"/>
    <path id="Path_1386" data-name="Path 1386" d="M230.659,64.023a.659.659,0,0,1-.659-.659V60.659a.659.659,0,0,1,1.318,0v2.7A.659.659,0,0,1,230.659,64.023Z" transform="translate(-177.48 -37.364)"/>
    <path id="Path_1387" data-name="Path 1387" d="M270.659,64.023a.659.659,0,0,1-.659-.659V60.659a.659.659,0,0,1,1.318,0v2.7A.659.659,0,0,1,270.659,64.023Z" transform="translate(-214.844 -37.364)"/>
    <path id="Path_1388" data-name="Path 1388" d="M201.59,23.954h-4.613a1.977,1.977,0,0,1,0-3.954h4.613a1.977,1.977,0,0,1,0,3.954Zm-4.613-2.636a.659.659,0,0,0,0,1.318h4.613a.659.659,0,0,0,0-1.318Z" transform="translate(-144.786)"/>
    <path id="Path_1389" data-name="Path 1389" d="M73.179,126.363a13.18,13.18,0,0,1-1.386-26.286,13.433,13.433,0,0,1,2.773,0,13.18,13.18,0,0,1-1.387,26.286Zm0-25.04a12.022,12.022,0,0,0-1.249.065,11.861,11.861,0,1,0,2.5,0A12.01,12.01,0,0,0,73.179,101.323Z" transform="translate(-18.682 -75.675)"/>
    <path id="Path_1390" data-name="Path 1390" d="M41.977,423.954a1.977,1.977,0,1,1,1.977-1.977A1.979,1.979,0,0,1,41.977,423.954Zm0-2.636a.659.659,0,1,0,.659.659A.66.66,0,0,0,41.977,421.318Z" transform="translate(0 -374.584)"/>
    <path id="Path_1391" data-name="Path 1391" d="M361.977,63.954a1.977,1.977,0,1,1,1.977-1.977A1.979,1.979,0,0,1,361.977,63.954Zm0-2.636a.659.659,0,1,0,.659.659A.66.66,0,0,0,361.977,61.318Z" transform="translate(-298.914 -37.364)"/>
    <path id="Path_1392" data-name="Path 1392" d="M363.295,291.318h-2.636a.659.659,0,0,1,0-1.318h2.636a.659.659,0,0,1,0,1.318Z" transform="translate(-298.914 -252.761)"/>
    <path id="Path_1393" data-name="Path 1393" d="M250.659,143.954a.659.659,0,0,1-.659-.659v-2.636a.659.659,0,1,1,1.318,0v2.636A.659.659,0,0,1,250.659,143.954Z" transform="translate(-196.162 -112.362)"/>
    <path id="Path_1394" data-name="Path 1394" d="M250.659,403.954a.659.659,0,0,1-.659-.659v-2.636a.659.659,0,0,1,1.318,0v2.636A.659.659,0,0,1,250.659,403.954Z" transform="translate(-196.162 -355.901)"/>
  </g>
</svg>
