<svg xmlns="http://www.w3.org/2000/svg" width="24" height="24" viewBox="0 0 24 24">
  <g id="_003-twitter" data-name="003-twitter" transform="translate(-0.113 -0.137)">
    <circle id="Ellipse_70" data-name="Ellipse 70" cx="12" cy="12" r="12" transform="translate(0.113 0.137)" fill="#55acee"/>
    <path id="Path_2234" data-name="Path 2234" d="M142.269,156.586a2.528,2.528,0,0,0-1.936-.813c-1.46.048-2.814.941-2.659,3.226,0,0-2.2.669-5.617-2.584a2.709,2.709,0,0,0,.845,3.482,1.816,1.816,0,0,1-1.273-.257s-.391,1.514,2.113,2.664c0,0-.845.241-1.225,0,0,0,.225,1.61,2.471,1.99a5.543,5.543,0,0,1-3.889,1.118s5.686,2.91,9.629-.829a8.029,8.029,0,0,0,2.423-6.232,2.513,2.513,0,0,0,1.321-1.155,5.178,5.178,0,0,1-1.482.246s1.038-.647,1.118-1.412A3.171,3.171,0,0,1,142.269,156.586Z" transform="translate(-125.626 -149.031)" fill="#fff"/>
  </g>
</svg>
