<svg xmlns="http://www.w3.org/2000/svg" width="24" height="24" viewBox="0 0 24 24">
  <g id="_006-whatsapp" data-name="006-whatsapp" transform="translate(0.036 -0.137)">
    <circle id="Ellipse_73" data-name="Ellipse 73" cx="12" cy="12" r="12" transform="translate(-0.036 0.137)" fill="#4caf50"/>
    <path id="Path_2237" data-name="Path 2237" d="M137.445,131a6.441,6.441,0,0,0-5.254,10.173l.057.082-.727,2.155,2.057-.809.088.062A6.443,6.443,0,1,0,137.445,131ZM136,135.723a1.455,1.455,0,0,1-.3.376,1.111,1.111,0,0,0-.433.763c.005.067.015.248.722.974a10.864,10.864,0,0,0,1.356,1.186c.7.505,1,.505,1.165.459a1.059,1.059,0,0,0,.588-.547c.124-.2.211-.33.34-.351a3.286,3.286,0,0,1,1.784.758.092.092,0,0,1,.021.072,2.033,2.033,0,0,1-.825,1.428,1.985,1.985,0,0,1-1.707.01c-2.645-.938-4.414-2.563-4.981-4.579a1.847,1.847,0,0,1,.356-1.99,1.354,1.354,0,0,1,.835-.382.129.129,0,0,1,.052.005,2.588,2.588,0,0,1,.639.846A2.5,2.5,0,0,1,136,135.723Z" transform="translate(-125.478 -125.306)" fill="#fff"/>
  </g>
</svg>
